<svg width="16" height="20" viewBox="0 0 16 20" fill="none" xmlns="http://www.w3.org/2000/svg">
  <path d="M15.2837 15.7033C14.9463 16.4756 14.5521 17.1826 14.0977 17.8318C13.4761 18.7096 12.9662 19.3109 12.5746 19.6357C11.9748 20.1704 11.3322 20.4441 10.6432 20.4599C10.1538 20.4599 9.56226 20.3204 8.87547 20.0363C8.18539 19.7541 7.55144 19.6146 6.97183 19.6146C6.36447 19.6146 5.71196 19.7541 5.01244 20.0363C4.31159 20.3204 3.74743 20.4678 3.31674 20.4825C2.65551 20.5112 1.99648 20.2296 1.33916 19.6357C0.918178 19.282 0.38864 18.6606 0.750549 17.7643C0.279827 16.9004 -0.0956725 16.0884 -0.410923 15.3254C-0.753447 14.4793 -0.925049 13.6625 -0.925049 12.8727C-0.925049 11.9692 -0.715515 11.1907 -0.297542 10.5422C0.0267811 10.0196 0.479116 9.60791 1.05922 9.30643C1.63932 9.00495 2.26446 8.85059 2.93684 8.83483C3.45408 8.83483 4.13193 8.99346 4.97445 9.30485C5.81427 9.61757 6.34827 9.7762 6.57377 9.7762C6.74165 9.7762 7.32883 9.59389 8.32596 9.23061C9.27433 8.89 10.0642 8.74723 10.6994 8.7979C12.4237 8.92329 13.7219 9.62278 14.5867 10.9003C12.9881 11.8833 12.1973 13.2646 12.2133 15.0382C12.2283 16.4472 12.7508 17.6187 13.7768 18.5474C14.2437 18.9743 14.7638 19.3051 15.3416 19.5416C15.2269 19.8764 15.1074 20.1992 14.9817 20.5114C14.7617 21.0946 14.5253 21.6322 14.2715 22.125Z" fill="currentColor"/>
  <path d="M10.5636 0.410156C10.5636 1.4793 10.1714 2.47849 9.39003 3.40544C8.46308 4.49008 7.33825 5.11939 6.12134 5.02113C6.1055 4.89257 6.09668 4.7571 6.09668 4.6149C6.09668 3.58476 6.54568 2.48166 7.34554 1.57861C7.74468 1.12233 8.25148 0.744232 8.86594 0.444496C9.47906 0.149404 10.0597 -0.00969238 10.6078 -0.0419922C10.6237 0.0910723 10.5636 0.215117 10.5636 0.410156Z" fill="currentColor"/>
</svg>
