<svg id="Capa_1" enable-background="new 0 0 511.999 511.999" height="512" viewBox="0 0 511.999 511.999" width="512" xmlns="http://www.w3.org/2000/svg"><g><path d="m471.364 426.666c-22.405 0-40.635-18.23-40.635-40.635v-8.127c0-22.405 18.23-40.635 40.635-40.635s40.635 18.23 40.635 40.635v8.127c0 22.405-18.23 40.635-40.635 40.635zm0-73.143c-13.444 0-24.381 10.936-24.381 24.381v8.127c0 13.444 10.936 24.381 24.381 24.381 13.444 0 24.381-10.937 24.381-24.381v-8.127c0-13.444-10.936-24.381-24.381-24.381z" fill="#94d77b"/><path d="m211.301 4.063c-47.959 0-92.187 15.978-127.65 42.901-50.829 38.588-58.23 165.196-58.23 165.196l311.725 172.96c51.855-38.505 85.456-100.206 85.456-169.755 0-116.699-94.603-211.302-211.301-211.302z" fill="#ffdc98"/><path d="m405.882 201.7c-6.549-96.131-84.786-174.368-180.917-180.917-48.831-3.327-94.15 11.333-129.995 38.012-7.623 5.674-17.445-3.704-11.718-11.287l.399-.544c-55.804 42.398-89.952 111.95-82.679 188.948 9.428 99.807 89.975 180.354 189.781 189.781 76.998 7.273 146.477-26.833 188.875-82.637-15.679 11.913-33.145 21.537-51.814 28.739 51.031-38.069 82.808-100.517 78.068-170.095z" fill="#ffcd89"/><circle cx="211.301" cy="215.365" fill="#fff0d2" r="178.794"/><path d="m243.809 329.142c0-13.465 10.916-24.381 24.381-24.381h69.712c5.9 0 11.281-3.227 14.231-8.336 16.361-28.332 24.472-62.022 20.859-97.844-7.662-75.97-69.085-137.386-145.067-144.929-102.269-10.152-187.611 74.577-178.495 176.658 6.644 74.407 65.001 135.765 138.998 146.009 14.044 1.944 27.787 2.056 41.05.573 8.189-.916 14.331-7.96 14.331-16.2z" fill="#fff"/><path d="m211.301 361.65c-4.492 0-8.127-3.639-8.127-8.127v-8.127c0-4.488 3.635-8.127 8.127-8.127s8.127 3.639 8.127 8.127v8.127c0 4.488-3.635 8.127-8.127 8.127z" fill="#de966c"/><path d="m211.301 93.46c-4.492 0-8.127-3.639-8.127-8.127v-8.127c0-4.488 3.635-8.127 8.127-8.127s8.127 3.639 8.127 8.127v8.127c0 4.488-3.635 8.127-8.127 8.127z" fill="#de966c"/><g><path d="m65.015 215.365c0-4.492 3.639-8.127 8.127-8.127h8.127c4.488 0 8.127 3.635 8.127 8.127s-3.639 8.127-8.127 8.127h-8.127c-4.488 0-8.127-3.635-8.127-8.127z" fill="#de966c"/></g><g><path d="m333.205 215.365c0-4.492 3.639-8.127 8.127-8.127h8.127c4.488 0 8.127 3.635 8.127 8.127s-3.639 8.127-8.127 8.127h-8.127c-4.488 0-8.127-3.635-8.127-8.127z" fill="#de966c"/></g><g><path d="m284.443 88.677c3.89 2.246 5.219 7.215 2.975 11.102l-4.063 7.038c-2.244 3.887-7.211 5.221-11.102 2.975-3.89-2.246-5.219-7.215-2.975-11.102l4.063-7.038c2.245-3.887 7.212-5.221 11.102-2.975z" fill="#f7b97e"/></g><g><path d="m150.348 320.937c3.89 2.246 5.219 7.215 2.975 11.102l-4.063 7.038c-2.244 3.887-7.211 5.221-11.102 2.975s-5.219-7.215-2.975-11.102l4.063-7.038c2.245-3.887 7.212-5.221 11.102-2.975z" fill="#f7b97e"/></g><g><g><path d="m105.728 154.412c-2.246 3.89-7.215 5.219-11.102 2.975l-7.038-4.063c-3.887-2.244-5.221-7.211-2.975-11.102s7.215-5.219 11.102-2.975l7.038 4.063c3.887 2.245 5.221 7.212 2.975 11.102z" fill="#f7b97e"/></g></g><g><path d="m138.158 88.677c-3.89 2.246-5.219 7.215-2.975 11.102l4.063 7.038c2.244 3.887 7.211 5.221 11.102 2.975 3.89-2.246 5.219-7.215 2.975-11.102l-4.063-7.038c-2.245-3.887-7.212-5.221-11.102-2.975z" fill="#f7b97e"/></g><g><g><path d="m84.613 288.507c2.246 3.89 7.215 5.219 11.102 2.975l7.038-4.063c3.887-2.244 5.221-7.211 2.975-11.102-2.246-3.89-7.215-5.219-11.102-2.975l-7.038 4.063c-3.887 2.245-5.221 7.212-2.975 11.102z" fill="#f7b97e"/></g><g><path d="m316.873 154.412c2.246 3.89 7.215 5.219 11.102 2.975l7.038-4.063c3.887-2.244 5.221-7.211 2.975-11.102s-7.215-5.219-11.102-2.975l-7.038 4.063c-3.887 2.245-5.221 7.212-2.975 11.102z" fill="#f7b97e"/></g></g><path d="m211.301 321.015c-4.492 0-8.127-3.639-8.127-8.127v-97.524c0-2.155.857-4.222 2.381-5.746l73.143-73.143c3.175-3.175 8.317-3.175 11.492 0s3.175 8.317 0 11.492l-70.762 70.762v94.159c0 4.488-3.635 8.127-8.127 8.127z" fill="#7a4646"/><circle cx="211.301" cy="215.365" fill="#aa6e4d" r="24.381"/><circle cx="211.301" cy="215.365" fill="#7a4646" r="8.127"/><path d="m398.221 468.015h-24.381c-31.419 0-56.889-25.47-56.889-56.889v-81.984c0-4.488 3.639-8.127 8.127-8.127h121.905c4.488 0 8.127 3.639 8.127 8.127v89.397c0 15.919-6.539 30.311-17.077 40.637z" fill="#b4e77a"/><path d="m355.196 296.634c-4.492 0-8.127-3.639-8.127-8.127 0-11.722 2.468-17.893 4.643-23.337 1.873-4.671 3.484-8.702 3.484-17.298 0-4.488 3.635-8.127 8.127-8.127s8.127 3.639 8.127 8.127c0 11.722-2.468 17.893-4.643 23.337-1.873 4.671-3.484 8.702-3.484 17.298 0 4.489-3.635 8.127-8.127 8.127z" fill="#f8d7ae"/><path d="m320.04 296.634c-4.492 0-8.127-3.639-8.127-8.127 0-9.869 1.222-18.385 3.857-26.806 1.325-4.282 5.905-6.671 10.175-5.333 4.286 1.337 6.675 5.897 5.333 10.183-2.119 6.802-3.111 13.778-3.111 21.956 0 4.489-3.635 8.127-8.127 8.127z" fill="#fff0d2"/><path d="m391.896 296.634c-4.492 0-8.127-3.639-8.127-8.127 0-5.218.556-6.861 2.317-11.266 1.944-4.857 3.452-9.206 4.484-14.635.833-4.405 5.103-7.325 9.5-6.464 4.413.841 7.31 5.095 6.468 9.504-1.349 7.103-3.373 12.675-5.357 17.635-1.159 2.889-1.159 2.889-1.159 5.226.001 4.489-3.634 8.127-8.126 8.127z" fill="#fff"/><path d="m365.713 459.174c-22.442 0-40.635-18.193-40.635-40.635v-97.524h-56.889c-4.489 0-8.127 3.639-8.127 8.127v89.396c0 25.767 17.141 47.505 40.635 54.502l32.508 34.895h65.016c8.977 0 16.254-7.277 16.254-16.254l-5.516-9.441 5.516-9.2c8.965-2.677 17.043-7.487 23.558-13.865z" fill="#94d77b"/><path d="m398.221 475.428h-81.27c-5.652 0-11.101-.852-16.254-2.387v18.641c0 8.977 7.277 16.254 16.254 16.254h16.254c0-8.977 7.277-16.254 16.254-16.254h65.016v-18.641c-5.153 1.535-10.601 2.387-16.254 2.387z" fill="#73c87d"/></g></svg>