<svg id="Cross_1_" enable-background="new 0 0 64 64" height="512" viewBox="0 0 64 64" width="512" xmlns="http://www.w3.org/2000/svg"><g><path d="m63.437 10.362-9.8-9.8c-.75-.75-1.966-.75-2.717 0l-18.92 18.922-18.921-18.921c-.75-.75-1.966-.75-2.717 0l-9.8 9.8c-.75.75-.75 1.966 0 2.717l18.922 18.92-18.921 18.921c-.75.75-.75 1.966 0 2.717l9.8 9.8c.75.75 1.966.75 2.717 0l18.92-18.922 18.921 18.921c.75.75 1.966.75 2.717 0l9.8-9.8c.75-.75.75-1.966 0-2.717l-18.922-18.92 18.921-18.921c.751-.749.751-1.966 0-2.717z" fill="#f74354"/></g></svg>