<svg enable-background="new 0 0 512 512" viewBox="0 0 512 512" xmlns="http://www.w3.org/2000/svg"><g id="Livello_33"/><g id="Livello_34"/><g id="Livello_35"/><g id="Livello_36"/><g id="Livello_32"/><g id="Livello_20"/><g id="Livello_21"/><g id="Livello_22"/><g id="Livello_23"/><g id="Livello_24"/><g id="Livello_25"/><g id="Livello_15"><g><path d="m471.66 294.61c.07-.45.13-.91.19-1.36-.15 1.16-.3 2.31-.46 3.47.04-.31.08-.61.11-.91-3.63 25.63-9.53 51.05-19.32 75.06.26-.59.52-1.19.77-1.78-.59 1.39-1.17 2.79-1.76 4.18.33-.78.65-1.56.97-2.35-6.04 13.94-13.47 27.25-22.59 39.42-7.32 9.19-15.59 17.55-24.79 24.86.7-.52 1.4-1.05 2.09-1.58-1.18.91-2.36 1.82-3.54 2.73.47-.37.94-.73 1.4-1.11-10.03 7.44-20.91 13.65-32.34 18.71.29-.11.58-.23.86-.34-1.11.47-2.22.93-3.32 1.4.76-.32 1.52-.65 2.28-.98-16.11 6.59-33.05 10.94-50.28 13.43.94-.11 1.89-.23 2.83-.36-1.55.2-3.1.41-4.65.62.58-.08 1.16-.16 1.74-.25-14.13 1.71-28.39 2.11-42.61 2.37-16.37.29-32.76.05-49.09-1.04-8.47-.57-16.92-1.36-25.34-2.43-16.09-2.22-32.22-5.19-47.35-11.15.6.27 1.2.53 1.81.79-1.4-.59-2.79-1.17-4.18-1.76.74.31 1.49.62 2.24.91-9.01-3.96-17.63-8.71-26.03-13.81-8.23-5-16.54-10.11-24.26-15.87-8.3-6.72-15.68-14.43-22.34-22.77-11.5-15.21-20.9-32.02-28.48-49.49-8.4-20.36-14.26-41.7-17.38-63.5-2.46-20.02-2.59-40.29-.14-60.31 2.56-17.72 7.17-35.09 13.93-51.68 7.51-17.23 17.24-33.48 28.56-48.46 11.56-14.7 24.77-28.07 39.45-39.69 13.59-10.28 28.32-19 43.94-25.81 14.58-5.91 29.79-10.11 45.35-12.4 8.23-1 16.52-1.46 24.82-1.4 5.77.04 11.38-3.18 14.63-7.92 9.97.15 19.92.95 29.78 2.19-.75-.11-1.5-.22-2.25-.32 1.55.21 3.1.42 4.65.63-.73-.1-1.46-.19-2.2-.29 27.16 3.87 53.97 11.03 79.36 21.44-.53-.24-1.06-.47-1.59-.69 1.39.59 2.78 1.18 4.18 1.76-.84-.35-1.68-.7-2.53-1.05 15.92 6.85 31.08 15.19 44.95 25.63 12.33 9.79 23.47 21.02 33.2 33.4 9.41 12.57 17.36 26.18 23.64 40.57 6.11 15.03 10.23 30.7 12.6 46.75-.09-.73-.18-1.46-.28-2.19.21 1.55.42 3.1.63 4.65-.11-.8-.22-1.6-.34-2.4 3.34 27.39 1.97 55.17-1.52 82.48z" fill="#ffde00"/><path d="m377.262 339.767c-2.017-3.849-4.343-7.534-6.925-11.028-3.451-4.67-7.064-9.223-11.141-13.365-15.067-15.306-34.576-26.025-55.349-31.275-23.476-5.934-47.829-5.389-71.499-.997-10.093 1.872-20.094 4.53-29.675 8.231-10.685 4.128-21.067 9.03-30.225 15.98-5.021 3.81-9.882 7.715-14.121 12.396-4.126 4.557-7.946 9.535-11.109 14.815-3.122 5.211-5.616 10.895-7.563 16.638-1.557 4.593-2.482 9.388-3.053 14.208-1.542 1.521-2.662 3.289-3.324 5.324-1.096 2.086-1.598 4.333-1.507 6.742.203 4.526 1.689 9.22 5.126 12.374 3.406 3.126 7.648 5.169 12.374 5.126 28.904-.267 57.807-.534 86.711-.801 28.82-.266 57.641-.532 86.461-.799 16.243-.15 32.485-.3 48.728-.45 4.513-.042 9.172-1.923 12.374-5.126 1.707-1.585 2.913-3.462 3.618-5.632 1.096-2.086 1.598-4.333 1.507-6.742-.118-2.635-.689-5.319-1.809-7.731-1.495-9.748-5.035-19.178-9.599-27.888zm-92.803 18.919c-28.82.266-57.641.532-86.461.799-8.107.075-16.214.15-24.321.225.163-.463.335-.923.509-1.383 1.843-3.937 4.066-7.678 6.607-11.206 3.158-3.821 6.681-7.3 10.506-10.451 5.835-4.275 12.149-7.829 18.743-10.794 12.145-4.911 25.003-8.149 37.957-10.064 11.726-1.4 23.587-1.586 35.324-.22 8.646 1.352 17.129 3.591 25.268 6.818 6.309 2.86 12.296 6.378 17.876 10.484 5.1 4.148 9.775 8.794 13.923 13.895 2.615 3.591 4.956 7.369 6.984 11.317-20.972.193-41.944.387-62.915.58z"/><path d="m510.061 240.119c-.432-28.452-4.832-57.22-15.559-83.685-9.915-24.46-23.552-46.733-41.181-66.434-16.35-18.272-36.166-33.854-57.802-45.392-21.832-11.642-45.453-20.312-69.372-26.541-24.607-6.409-50.199-10.483-75.647-10.974-12.121-.234-24.08.684-36.072 2.415-3.792.547-7.979 4.232-10.087 7.446-13.826 1.904-27.476 5.172-40.559 9.821-22.331 7.934-43.346 19.15-62.144 33.59-9.916 7.617-19.386 15.672-28.123 24.63-8.664 8.885-16.537 18.477-23.927 28.44-14.73 19.861-26.466 41.937-34.617 65.288-8.62 24.691-12.762 51.162-13.051 77.282-.291 26.337 3.444 53.006 10.698 78.319 7.297 25.464 18.224 50.236 32.491 72.57 7.539 11.8 16.112 23.177 25.954 33.159 9.989 10.132 21.591 18.19 33.518 25.847 11.626 7.464 23.558 14.547 36.271 20.014 7.365 3.167 14.786 6.115 22.56 8.125 6.997 1.809 14.13 3.181 21.251 4.402 29.951 5.137 60.328 6.836 90.684 6.455 27.949-.351 55.985-1.888 83.08-9.284 26.878-7.336 51.983-19.805 73.476-37.565 19.383-16.017 34.817-37.058 45.905-59.537 11.384-23.08 19.115-47.762 24.031-72.984 5.453-27.986 8.655-56.875 8.222-85.407zm-38.489 55.113c-3.628 25.851-9.554 51.494-19.432 75.703-6.083 14.008-13.56 27.38-22.734 39.601-7.202 8.996-15.315 17.191-24.309 24.399-10.416 7.777-21.739 14.21-33.65 19.406-15.647 6.31-32.049 10.529-48.73 13.004-14.414 1.797-28.964 2.232-43.476 2.492-16.368.293-32.755.052-49.093-1.037-8.864-.591-17.708-1.448-26.519-2.588-15.823-2.229-31.666-5.231-46.538-11.156-8.913-3.944-17.466-8.642-25.791-13.706-8.073-4.91-16.229-9.928-23.838-15.562-8.622-6.913-16.269-14.91-23.132-23.563-11.357-15.144-20.668-31.845-28.195-49.2-8.314-20.222-14.129-41.411-17.26-63.051-2.496-20.206-2.625-40.659-.136-60.87 2.584-17.613 7.18-34.88 13.895-51.371 7.454-17.081 17.093-33.222 28.293-48.11 11.696-14.912 25.072-28.451 39.946-40.199 13.481-10.163 28.06-18.795 43.534-25.555 14.782-6.013 30.216-10.266 46.012-12.564 8.077-.947 16.199-1.391 24.335-1.33 5.761.043 11.363-3.177 14.624-7.911 9.903.143 19.804.929 29.615 2.156 27.587 3.903 54.813 11.196 80.568 21.839 15.422 6.701 30.128 14.807 43.617 24.87 12.401 9.786 23.593 21.005 33.403 33.384 9.55 12.693 17.608 26.444 23.97 40.999 6.144 15.143 10.293 30.929 12.649 47.096 3.326 27.508 1.912 55.396-1.628 82.824z"/><path d="m146.971 191.183c7.989 3.67 15.818 7.685 23.468 12.013-.776.665-1.542 1.341-2.323 2-3.802 3.21-7.676 6.333-11.594 9.401-2.335 1.784-4.676 3.561-7.048 5.295-2.039 1.1-3.676 2.602-4.91 4.507-1.547 1.69-2.591 3.674-3.132 5.951-.729 2.326-.833 4.652-.313 6.978.106 2.329.798 4.498 2.077 6.507 2.409 3.737 5.996 7.026 10.458 8.042 4.319.984 9.75.967 13.485-1.764 11.694-8.551 22.988-17.625 33.799-27.244 1.609 1.176 3.197 2.381 4.783 3.587 7.427 5.829 14.601 11.972 21.474 18.446 3.33 3.136 7.748 5.126 12.375 5.126 4.292 0 9.419-1.906 12.374-5.126 3.062-3.335 5.334-7.714 5.126-12.374-.204-4.561-1.714-9.161-5.126-12.374-8.177-7.701-16.766-15.01-25.7-21.879 3.458-3.676 6.869-7.396 10.188-11.198 1.707-1.585 2.913-3.462 3.618-5.632 1.096-2.086 1.598-4.333 1.507-6.742 0-4.292-1.906-9.419-5.125-12.374-3.335-3.062-7.714-5.334-12.375-5.126-4.457.2-9.335 1.645-12.374 5.126-4.738 5.426-9.628 10.718-14.648 15.883-4.108-2.504-8.266-4.921-12.478-7.232-6.519-3.577-13.166-6.915-19.922-10.019-2.009-1.279-4.177-1.971-6.506-2.077-2.326-.521-4.652-.417-6.978.313-4.059 1.118-8.458 4.257-10.458 8.042-2.146 4.061-3.221 8.982-1.764 13.485 1.323 4.091 3.972 8.589 8.042 10.459z"/><path d="m389.399 219.601c-8.177-7.701-16.766-15.01-25.7-21.879 3.458-3.676 6.869-7.396 10.188-11.198 1.707-1.585 2.913-3.462 3.618-5.632 1.096-2.086 1.598-4.333 1.507-6.742 0-4.292-1.906-9.419-5.126-12.374-3.335-3.062-7.714-5.334-12.374-5.126-4.457.2-9.335 1.645-12.374 5.126-4.738 5.426-9.628 10.718-14.648 15.883-4.108-2.504-8.266-4.921-12.478-7.232-6.519-3.577-13.166-6.915-19.922-10.019-2.009-1.279-4.178-1.971-6.506-2.077-2.326-.521-4.652-.417-6.978.313-4.059 1.118-8.458 4.257-10.458 8.042-2.146 4.061-3.221 8.982-1.764 13.485 1.324 4.091 3.972 8.589 8.042 10.459 7.99 3.67 15.818 7.685 23.468 12.013-.776.665-1.542 1.341-2.323 2-3.802 3.21-7.676 6.333-11.593 9.4-2.335 1.784-4.676 3.561-7.049 5.296-2.039 1.1-3.676 2.602-4.91 4.507-1.547 1.69-2.591 3.674-3.132 5.951-.729 2.326-.833 4.652-.313 6.978.106 2.329.798 4.498 2.077 6.507 2.409 3.737 5.996 7.026 10.458 8.042 4.319.984 9.75.967 13.485-1.764 11.694-8.551 22.988-17.625 33.8-27.244 1.609 1.177 3.197 2.381 4.783 3.587 7.427 5.829 14.601 11.972 21.474 18.445 3.329 3.136 7.748 5.126 12.374 5.126 4.292 0 9.419-1.906 12.374-5.126 3.062-3.335 5.334-7.714 5.126-12.374-.205-4.56-1.715-9.16-5.126-12.373z"/></g></g><g id="Livello_16"/><g id="Livello_17"/><g id="Livello_18"/><g id="Livello_19"/><g id="Livello_14"/><g id="Livello_13"/><g id="Livello_12"/><g id="Livello_11"/><g id="Livello_10"/><g id="Livello_9"/><g id="Livello_8"/><g id="Livello_7"/><g id="Livello_6"/><g id="Livello_5"/><g id="Livello_4"/><g id="_x31_"/><g id="Livello_3"/><g id="Livello_1"/></svg>