<svg id="svg19243" height="512" viewBox="0 0 16.933333 16.933334" width="512" xmlns="http://www.w3.org/2000/svg" xmlns:svg="http://www.w3.org/2000/svg"><g id="layer1" transform="translate(0 -280.067)"><path id="path13024" d="m4.2029985 288.26951a.26460982.26460982 0 0 0 -.1562528.0762l-2.468751 2.46875c-.514974.51497-.514974 1.35611.000001 1.87109l2.6503909 2.65039a.26460982.26460982 0 0 0 .1874981.0762h2.7285159a.26460982.26460982 0 0 0 .1855451-.0762l1.8535169-1.85351a.26460982.26460982 0 0 0 0-.37305l-4.7636729-4.76367a.26460982.26460982 0 0 0 -.216797-.0762z" fill="#e9e9ff" font-variant-ligatures="normal" font-variant-position="normal" font-variant-caps="normal" font-variant-numeric="normal" font-variant-alternates="normal" font-feature-settings="normal" text-indent="0" text-align="start" text-decoration-line="none" text-decoration-style="solid" text-decoration-color="#000000" text-transform="none" text-orientation="mixed" white-space="normal" shape-padding="0" isolation="auto" mix-blend-mode="normal" solid-color="#000000" solid-opacity="1" vector-effect="none"/><path id="path13036" d="m4.4196246 288.34576a.26460982.26460982 0 0 0 -.2166859-.0764.26460982.26460982 0 0 0 -.15603.0764l-.5616329.56163.1874559.18745 4.949079 4.94908.5616329-.56163a.26460982.26460982 0 0 0 0-.37271z" fill="#d4d4e8" font-variant-ligatures="normal" font-variant-position="normal" font-variant-caps="normal" font-variant-numeric="normal" font-variant-alternates="normal" font-feature-settings="normal" text-indent="0" text-align="start" text-decoration-line="none" text-decoration-style="solid" text-decoration-color="#000000" text-transform="none" text-orientation="mixed" white-space="normal" shape-padding="0" isolation="auto" mix-blend-mode="normal" solid-color="#000000" solid-opacity="1" vector-effect="none"/><path id="path13026" d="m8.9958376 292.92167-2.0401871 2.04019c-.04949.0487-.11611.0765-.1855157.0765l-2.8401363-.00053.2981722.29818a.26460982.26460982 0 0 0 .1875849.076h2.7285151a.26460982.26460982 0 0 0 .1855189-.076l1.8536341-1.85364a.26460982.26460982 0 0 0 0-.3731z" fill="#d4d4e8" font-variant-ligatures="normal" font-variant-position="normal" font-variant-caps="normal" font-variant-numeric="normal" font-variant-alternates="normal" font-feature-settings="normal" text-indent="0" text-align="start" text-decoration-line="none" text-decoration-style="solid" text-decoration-color="#000000" text-transform="none" text-orientation="mixed" white-space="normal" shape-padding="0" isolation="auto" mix-blend-mode="normal" solid-color="#000000" solid-opacity="1" vector-effect="none"/><path id="path13030" d="m11.113155 281.83005c-.338973 0-.678048.12727-.935546.38477l-6.3183614 6.31836.1874999.1875 4.9492202 4.94922 6.3183593-6.31836c.515-.515.515-1.3561 0-1.8711l-3.265625-3.26562c-.2575-.2575-.596576-.38477-.935547-.38477z" fill="#ffcf4d" font-variant-ligatures="normal" font-variant-position="normal" font-variant-caps="normal" font-variant-numeric="normal" font-variant-alternates="normal" font-feature-settings="normal" text-indent="0" text-align="start" text-decoration-line="none" text-decoration-style="solid" text-decoration-color="#000000" text-transform="none" text-orientation="mixed" white-space="normal" shape-padding="0" isolation="auto" mix-blend-mode="normal" solid-color="#000000" solid-opacity="1" vector-effect="none"/><path id="path13032" d="m11.109404 283.50571a.26460982.26460982 0 0 0 -.183968.078l-4.7635373 4.76198a.26460982.26460982 0 0 0 0 .37517l2.6463519 2.64635a.26460982.26460982 0 0 0 .3751691 0l4.7619813-4.76353a.26460982.26460982 0 0 0 0-.37311l-2.646868-2.64687a.26460982.26460982 0 0 0 -.189133-.078z" fill="#ff8a26" font-variant-ligatures="normal" font-variant-position="normal" font-variant-caps="normal" font-variant-numeric="normal" font-variant-alternates="normal" font-feature-settings="normal" text-indent="0" text-align="start" text-decoration-line="none" text-decoration-style="solid" text-decoration-color="#000000" text-transform="none" text-orientation="mixed" white-space="normal" shape-padding="0" isolation="auto" mix-blend-mode="normal" solid-color="#000000" solid-opacity="1" vector-effect="none"/><path id="path13034" d="m14.940138 285.10595c.515.51499.515001 1.35662 0 1.87161-2.131566 2.13157-4.186369 4.18618-6.3183482 6.31816l.3741779.37418c2.1319783-2.13198 4.1867813-4.1866 6.3183483-6.31816.515-.515.515001-1.35662-.000001-1.87162z" fill="#e8bd46" font-variant-ligatures="normal" font-variant-position="normal" font-variant-caps="normal" font-variant-numeric="normal" font-variant-alternates="normal" font-feature-settings="normal" text-indent="0" text-align="start" text-decoration-line="none" text-decoration-style="solid" text-decoration-color="#000000" text-transform="none" text-orientation="mixed" white-space="normal" shape-padding="0" isolation="auto" mix-blend-mode="normal" solid-color="#000000" solid-opacity="1" vector-effect="none"/></g></svg>