<svg id="Capa_1" enable-background="new 0 0 497.002 497.002" height="512" viewBox="0 0 497.002 497.002" width="512" xmlns="http://www.w3.org/2000/svg"><g><path d="m178.491 403.365-63.64 63.64 21.213 21.213c11.717 11.717 30.717 11.71 42.426 0l42.426-42.426z" fill="#fa4946"/><path d="m51.211 276.085-42.426 42.427c-11.71 11.71-11.717 30.71 0 42.426l106.066 106.066c11.717 11.717 30.717 11.71 42.426 0l42.426-42.426z" fill="#ff6652"/><path d="m199.704 382.151-21.213 63.64c11.717 11.717 30.717 11.71 42.426 0l21.213-21.213z" fill="#fff899"/><path d="m72.425 254.872-21.213 21.213c-11.71 11.71-11.717 30.71 0 42.426l127.279 127.279 42.426-42.426z" fill="#fdffcc"/><path d="m242.13 339.725-42.426 84.853c11.717 11.717 30.717 11.71 42.426 0l42.426-42.426z" fill="#fa4946"/><path d="m114.851 212.446-42.426 42.426c-11.71 11.71-11.717 30.71 0 42.426l127.279 127.279 63.64-63.64z" fill="#ff6652"/><path d="m386.384 280.324-101.827 101.828c-11.71 11.71-30.71 11.717-42.426 0l101.827-229.107z" fill="#ff6652"/><path d="m407.597 216.685-165.467 165.467-127.279-127.28c-11.717-11.717-11.71-30.717 0-42.426l101.827-101.827z" fill="#ff8469"/><path d="m488.217 136.064-21.213-21.213-101.833 101.834v42.426l21.213 21.213 101.834-101.834c11.709-11.709 11.716-30.709-.001-42.426z" fill="#458aff"/><path d="m467.004 157.277-101.833 101.834-148.493-148.493 101.834-101.833c11.71-11.71 30.71-11.717 42.426 0l106.066 106.066c11.717 11.717 11.71 30.717 0 42.426z" fill="#40a6ff"/></g></svg>