<svg height="512" viewBox="0 0 48 48" width="512" xmlns="http://www.w3.org/2000/svg"><g id="Feedback"><path d="m33 23c0 15.46.18 14.74-.54 16a4 4 0 0 1 -3.46 2h-14.17c-.84 0-.41-.15-8.83 6v-6h-1a4 4 0 0 1 -4-4v-14a4 4 0 0 1 4-4h10a4 4 0 0 0 4 4z" fill="#6fabe6"/><path d="m47 5c0 15.46.18 14.74-.54 16-1.16 2-3 2-4.46 2v6l-7.41-5.41c-.82-.82-.45-.59-15.59-.59a4 4 0 0 1 -4-4v-14a4 4 0 0 1 4-4h24a4 4 0 0 1 4 4z" fill="#fc6"/><path d="m43 1c-26.27 0-24.34-.06-25 .13a19.87 19.87 0 0 0 19.87 19.87h8.59c.74-1.28.54-.6.54-16a4 4 0 0 0 -4-4zm-14 17.16c-5-5-6-5.5-6-7.48a3.6 3.6 0 0 1 3.6-3.6 3.69 3.69 0 0 1 2.4.92 3.59 3.59 0 0 1 6 2.68c0 1.92-.89 2.41-6 7.48z" fill="#ffde76"/><path d="m37 9.91c0 2-1.07 2.58-6 7.48-5.28-5.28-5-5-5.08-5.1a3.59 3.59 0 0 1 5.08-5.06 3.66 3.66 0 0 1 2.41-.92 3.59 3.59 0 0 1 3.59 3.6z" fill="#db5669"/><path d="m37 9.91c0 1.92-1.08 2.56-4.38 5.87-4.47-4.47-5.62-5.1-5.62-7.1a3.58 3.58 0 0 1 .82-2.29 4 4 0 0 1 .78-.08 3.69 3.69 0 0 1 2.4.92 3.59 3.59 0 0 1 6 2.68z" fill="#f26674"/><path d="m32.59 25.59c-.82-.82-.45-.59-15.59-.59a4 4 0 0 1 -4-4v-2c-8.84 0-8.38-.05-9 .13a19.73 19.73 0 0 0 2.64 9.87 2 2 0 0 1 2.09 3 19.8 19.8 0 0 0 15.14 7h8.59a4 4 0 0 0 .54-2c0-12.35.18-11-.41-11.41zm-14.77 6.23a2 2 0 1 1 -1.82-2.82 2 2 0 0 1 1.82 2.82zm9 0a2 2 0 1 1 -1.82-2.82 2 2 0 0 1 1.82 2.82z" fill="#82bcf4"/><path d="m10 30a2 2 0 1 1 -2.82-1.82 2 2 0 0 1 2.82 1.82z" fill="#dad7e5"/><path d="m9.82 30.82a2 2 0 0 1 -2.64-2.64 2 2 0 0 1 2.64 2.64z" fill="#edebf2"/><path d="m19 30a2 2 0 1 1 -2.82-1.82 2 2 0 0 1 2.82 1.82z" fill="#dad7e5"/><path d="m18.82 30.82a2 2 0 0 1 -2.64-2.64 2 2 0 0 1 2.64 2.64z" fill="#edebf2"/><path d="m28 30a2 2 0 1 1 -2.82-1.82 2 2 0 0 1 2.82 1.82z" fill="#dad7e5"/><path d="m27.82 30.82a2 2 0 0 1 -2.64-2.64 2 2 0 0 1 2.64 2.64z" fill="#edebf2"/></g></svg>