<svg height="512" viewBox="0 0 240 240" width="512" xmlns="http://www.w3.org/2000/svg"><path d="m118.23 123.25v37.85l-.09.05 101.77-58.64v-36.17l-101.52-58.67-101.53 57.15 101.28 58.48z" fill="#ffe04a"/><path d="m19.5 180.25 98.64 56.95v-70.72l-98.64-56.52z" fill="#ffeb8a"/><path d="m118.14 161.15.09-.05v-37.85h-.09l-101.28-58.43v38l2.64 1.52 98.5 56.87h.08z" fill="#ffeb8a"/><path d="m118.14 237.2 98.64-56.95v-70.32l-98.64 56.52z" fill="#ffc61a"/><path d="m19.45 104.31v5.62l98.55 56.49v-5.21z" fill="#ffe04a"/><path d="m118.12 166.46h.07v-.09z" fill="#ffe04a"/><path d="m216.79 104.31-47.45 27.34-51.22 29.52h-.08v5.3h.08l98.6-56.49z" fill="#ffeb8a"/><path d="m219.91 66.34-101.68 56.91v37.85l51.11-29.45 50.57-29.14z" fill="#ffc61a"/><path d="m58.83 202.82v-113.8l19.66 11.39v113.9z" fill="#f0626c"/><path d="m178.42 202.82v-113.8l-19.66 11.39v113.9z" fill="#d14f58"/><path d="m119.28 77.97 51.4 34.88v-17.44h31.2l-57.48-34.1z" fill="#f0626c"/><path d="m119.28 78s82.6 9.18 82.6-13.77v-10.13l-82.6 1.38z" fill="#d14f58"/><path d="m119.28 78s66.08-53.24 82.6-13.77v-31.23s-20.2-41.3-82.6 22.49z" fill="#f0626c"/><path d="m119.06 77.97-51.4 34.88v-17.44h-31.21l57.47-34.1z" fill="#ff8f97"/><path d="m119.06 78s-82.61 9.15-82.61-13.8v-10.1l82.61 1.38z" fill="#d14f58"/><path d="m119.06 78s-66.06-53.27-82.61-13.8v-31.2s20.19-41.3 82.61 22.49z" fill="#f0626c"/></svg>