<svg id="Capa_1" enable-background="new 0 0 497 497" height="512" viewBox="0 0 497 497" width="512" xmlns="http://www.w3.org/2000/svg"><g><path d="m497 248.5c0 88.413-46.172 166.042-115.719 210.089-38.411 24.327-132.781 29.422-132.781 29.422s-232.617-100.23-232.617-237.473c0-79.045 21.023-151.508 78.543-197.022 42.351-33.51 95.876-53.516 154.074-53.516 137.243 0 248.5 111.257 248.5 248.5z" fill="#ffd764"/><path d="m416.75 431.38c-44.27 40.74-103.35 65.62-168.25 65.62-137.24 0-248.5-111.26-248.5-248.5 0-90.32 48.18-169.38 120.25-212.88-49.34 45.42-80.25 110.54-80.25 182.88 0 137.24 111.26 248.5 248.5 248.5 46.92 0 90.81-13.01 128.25-35.62z" fill="#ffaa4d"/><path d="m458.251 387.877-75.798 12.381c-8.19 1.338-13.745 9.062-12.407 17.252 1.242 7.602 14.267 9.606 21.779 9.262l66.957-3.047c10.777-.482 22.613-6.664 22.131-17.441s-9.609-19.124-20.386-18.642c-.733.032-1.567.124-2.276.235z" fill="#b36d3c"/><path d="m370.045 417.509c1.249 7.607 7.993 12.931 15.507 12.591l76.724-3.427c10.695-.474 18.993-9.486 18.647-20.157-3.89 2.667-8.779 4.391-14.124 4.689l-93.439 5.16c-1.182.067-2.333.036-3.463-.082.036.411.082.82.148 1.226z" fill="#995e34"/><path d="m158.083 378.012 75.798 12.381c8.19 1.338 13.745 9.062 12.407 17.252-1.242 7.602-14.267 9.606-21.779 9.262l-66.957-3.047c-10.777-.482-22.613-6.664-22.131-17.441s9.609-19.124 20.386-18.642c.733.032 1.566.124 2.276.235z" fill="#b36d3c"/><path d="m246.289 407.643c-1.249 7.607-7.993 12.931-15.507 12.591l-76.724-3.427c-10.695-.474-18.993-9.486-18.647-20.157 3.89 2.667 8.779 4.391 14.124 4.689l93.439 5.16c1.182.067 2.333.036 3.463-.082-.036.412-.083.821-.148 1.226z" fill="#995e34"/><path d="m336.09 138.556c-22.124 0-42.757 10.924-55.192 29.222-2.328 3.426-1.438 8.091 1.987 10.419 3.427 2.328 8.09 1.438 10.419-1.987 9.784-14.397 25.379-22.654 42.786-22.654s33.001 8.257 42.785 22.653c2.329 3.426 6.993 4.316 10.419 1.988s4.315-6.993 1.987-10.419c-12.435-18.298-33.067-29.222-55.191-29.222z" fill="#e27c48"/><path d="m199.117 318.904s62.362 28.038 86.599 3.391 23.906-64.275-.741-88.512-64.275-23.906-88.512.741 2.654 84.38 2.654 84.38z" fill="#fcf7ed"/><path d="m289.6 317.96c-1.21 1.49-2.51 2.94-3.88 4.34-24.24 24.64-63.87 24.97-88.52.74-24.64-24.24-24.97-63.87-.74-88.52 2.84-2.89 5.9-5.45 9.12-7.66-20.23 24.76-18.62 61.32 4.62 84.18 21.76 21.39 55.18 23.64 79.4 6.92z" fill="#f7e5c1"/><path d="m257.316 262.372c3.303 3.248 7.677 4.721 11.963 4.456.908-.056 1.726.512 2.02 1.373 3.006 8.787 2.11 18.622-2.718 26.792-1.609 2.723-7.746 3.617-10.23 5.87-12.255 11.115-34.043-3.745-34.043-3.745s-17.113-25.567-4.426-38.468c2.578-2.621 3.534-7.278 6.651-8.828 7.752-3.855 16.743-4.392 24.847-1.596.829.286 1.346 1.111 1.292 1.986-.273 4.377 1.271 8.843 4.644 12.16z" fill="#8c818f"/><path d="m269.56 293.2c-1.45 2.88-3.37 5.58-5.75 8-12.46 12.67-32.84 12.84-45.51.38s-12.84-32.83-.38-45.5c3.02-3.07 6.51-5.41 10.25-7-6.19 12.17-4.12 27.42 6.13 37.5 9.59 9.44 23.61 11.63 35.26 6.62z" fill="#766d78"/><path d="m390.213 317.935s62.362 28.038 86.599 3.391 23.905-64.275-.741-88.512c-24.647-24.237-64.275-23.906-88.512.741s2.654 84.38 2.654 84.38z" fill="#fcf7ed"/><path d="m480.696 316.991c-1.21 1.49-2.51 2.94-3.88 4.34-24.24 24.64-63.87 24.97-88.52.74-24.64-24.24-24.97-63.87-.74-88.52 2.84-2.89 5.9-5.45 9.12-7.66-20.23 24.76-18.62 61.32 4.62 84.18 21.76 21.39 55.18 23.64 79.4 6.92z" fill="#f7e5c1"/><path d="m448.412 261.403c3.303 3.248 7.677 4.721 11.963 4.456.908-.056 1.726.512 2.02 1.373 3.006 8.787 2.11 18.622-2.718 26.792-1.609 2.723-7.746 3.617-10.23 5.87-12.255 11.115-34.043-3.745-34.043-3.745s-17.113-25.567-4.426-38.468c2.578-2.621 3.534-7.278 6.651-8.828 7.752-3.855 16.743-4.392 24.847-1.596.829.286 1.346 1.111 1.292 1.986-.273 4.376 1.271 8.843 4.644 12.16z" fill="#8c818f"/><path d="m460.656 292.231c-1.45 2.88-3.37 5.58-5.75 8-12.46 12.67-32.84 12.84-45.51.38s-12.84-32.83-.38-45.5c3.02-3.07 6.51-5.41 10.25-7-6.19 12.17-4.12 27.42 6.13 37.5 9.59 9.44 23.61 11.63 35.26 6.62z" fill="#766d78"/></g></svg>