<svg height="512pt" viewBox="-123 0 512 512" width="512pt" xmlns="http://www.w3.org/2000/svg"><path d="m173.152344 0-71.265625 185.566406h59.964843l71.265626-185.566406" fill="#e0365f"/><path d="m240.171875 512h-213.914063c-14.5 0-26.257812-11.757812-26.257812-26.257812v-306.167969c0-14.5 11.757812-26.257813 26.257812-26.257813h213.914063c14.503906 0 26.257813 11.757813 26.257813 26.257813v306.167969c0 14.5-11.753907 26.257812-26.257813 26.257812zm0 0" fill="#ffe671"/><path d="m240.171875 153.316406h-49.09375c14.503906 0 26.261719 11.757813 26.261719 26.257813v306.167969c0 14.5-11.757813 26.257812-26.261719 26.257812h49.09375c14.503906 0 26.257813-11.757812 26.257813-26.257812v-306.167969c0-14.5-11.753907-26.257813-26.257813-26.257813zm0 0" fill="#ffce5e"/><path d="m208.070312 453.324219h-149.710937c-4.3125 0-7.804687-3.496094-7.804687-7.804688 0-4.3125 3.492187-7.808593 7.804687-7.808593h149.710937c4.3125 0 7.808594 3.496093 7.808594 7.808593 0 4.308594-3.496094 7.804688-7.808594 7.804688zm0 0" fill="#db7b99"/><path d="m162.113281 485.066406h-57.796875c-4.308594 0-7.804687-3.492187-7.804687-7.804687s3.496093-7.808594 7.804687-7.808594h57.796875c4.308594 0 7.804688 3.496094 7.804688 7.808594s-3.496094 7.804687-7.804688 7.804687zm0 0" fill="#db7b99"/><path d="m208.070312 337.449219c0 15.621093-4.785156 30.121093-12.964843 42.117187-8.109375 11.890625-19.558594 21.328125-32.996094 26.957032-8.886719 3.71875-18.652344 5.78125-28.894531 5.78125-10.074219 0-19.679688-1.988282-28.453125-5.601563-13.625-5.601563-25.234375-15.113281-33.425781-27.128906-8.195313-11.996094-12.976563-26.496094-12.976563-42.125 0-29.875 17.503906-55.667969 42.824219-67.671875 1.550781-.742188 3.144531-1.429688 4.761718-2.0625 8.457032-3.304688 17.644532-5.121094 27.269532-5.121094 10.976562 0 21.402344 2.363281 30.789062 6.601562 1.183594.535157 2.351563 1.101563 3.503906 1.703126 24.09375 12.429687 40.5625 37.558593 40.5625 66.550781zm0 0" fill="#fff"/><path d="m167.507812 270.898438c-1.148437-.601563-2.316406-1.167969-3.503906-1.703126-9.386718-4.238281-19.8125-6.601562-30.789062-6.601562-3.636719 0-7.210938.261719-10.707032.761719 7.070313 1.011719 13.820313 3.003906 20.105469 5.839843 1.183594.535157 2.351563 1.101563 3.5 1.703126 24.097657 12.429687 40.566407 37.558593 40.566407 66.550781 0 15.621093-4.785157 30.121093-12.96875 42.117187-8.105469 11.894532-19.554688 21.328125-32.992188 26.957032-5.742188 2.402343-11.855469 4.101562-18.222656 5.011718 3.5.503906 7.078125.769532 10.71875.769532 10.246094 0 20.007812-2.0625 28.898437-5.78125 13.433594-5.628907 24.882813-15.0625 32.992188-26.957032 8.179687-11.996094 12.964843-26.496094 12.964843-42.117187 0-28.992188-16.46875-54.121094-40.5625-66.550781zm0 0" fill="#def6ff"/><path d="m195.105469 371.1875v8.378906c-6.648438 9.746094-15.535157 17.84375-25.929688 23.546875-2.289062 1.253907-4.644531 2.394531-7.0625 3.410157-2.15625.902343-4.371093 1.714843-6.628906 2.410156-7.035156 2.183594-14.511719 3.371094-22.269531 3.371094-7.589844 0-14.914063-1.128907-21.816406-3.230469-2.257813-.6875-4.472657-1.476563-6.636719-2.375-2.421875-.988281-4.773438-2.105469-7.0625-3.339844-10.574219-5.714844-19.621094-13.910156-26.363281-23.785156v-8.390625c0-19.714844 15.976562-35.703125 35.703124-35.703125h52.363282c19.722656 0 35.703125 15.988281 35.703125 35.707031zm0 0" fill="#37cd90"/><path d="m111.820312 383.425781v23.277344c0 .835937-.140624 1.636719-.421874 2.371094-2.261719-.6875-4.472657-1.476563-6.636719-2.371094-2.421875-.988281-4.777344-2.109375-7.0625-3.34375v-19.933594c0-3.898437 3.164062-7.0625 7.0625-7.0625 3.894531 0 7.058593 3.164063 7.058593 7.0625zm0 0" fill="#27aa88"/><path d="m156.878906 335.480469v1.234375c0 13.058594-10.59375 23.644531-23.644531 23.644531-13.078125 0-23.671875-10.585937-23.671875-23.644531v-1.234375zm0 0" fill="#199185"/><path d="m169.175781 383.425781v19.6875c-2.289062 1.253907-4.644531 2.394531-7.0625 3.410157-2.15625.902343-4.371093 1.710937-6.628906 2.410156-.285156-.753906-.433594-1.566406-.433594-2.410156v-23.097657c0-3.898437 3.164063-7.0625 7.0625-7.0625 3.898438 0 7.0625 3.164063 7.0625 7.0625zm0 0" fill="#27aa88"/><path d="m149.015625 313.5625v21.683594c0 8.71875-7.070313 15.789062-15.800781 15.789062-8.71875 0-15.789063-7.070312-15.789063-15.789062v-21.683594zm0 0" fill="#fcc1b9"/><path d="m149.015625 313.5625v10.449219c-4.792969 2.683593-10.320313 4.21875-16.195313 4.21875-5.554687 0-10.789062-1.363281-15.394531-3.785157v-10.882812zm0 0" fill="#f2aa99"/><path d="m133.21875 320.066406c-18.3125 0-33.160156-14.84375-33.160156-33.160156v-38.265625c0-9.542969 7.738281-17.277344 17.277344-17.277344h31.765624c9.542969 0 17.28125 7.734375 17.28125 17.277344v38.265625c0 18.316406-14.847656 33.160156-33.164062 33.160156zm0 0" fill="#fcc1b9"/><path d="m166.382812 248.640625v30.96875c0-9.292969-7.34375-16.875-16.542968-17.261719-.246094-.007812-.492188-.019531-.734375-.019531h-31.769531c-9.539063 0-17.277344 7.742187-17.277344 17.28125v-30.96875c0-9.539063 7.738281-17.277344 17.277344-17.277344h31.769531c9.535156 0 17.277343 7.738281 17.277343 17.277344zm0 0" fill="#354968"/><path d="m150.964844 255.484375v6.84375.019531c-.246094-.007812-.492188-.019531-.734375-.019531h-13.390625v-6.84375c0-3.898437 3.164062-7.0625 7.0625-7.0625 3.898437.003906 7.0625 3.164063 7.0625 7.0625zm0 0" fill="#2a3a51"/><path d="m174.492188 193.371094h-82.5625c-4.3125 0-7.808594-3.492188-7.808594-7.804688s3.496094-7.808594 7.808594-7.808594h82.5625c4.3125 0 7.808593 3.496094 7.808593 7.808594s-3.496093 7.804688-7.808593 7.804688zm0 0" fill="#fff"/><path d="m91.925781 0 71.265625 185.566406h-54.472656c-3.308594 0-6.273438-2.039062-7.460938-5.128906l-69.296874-180.4375" fill="#ff3b63"/></svg>