<svg id="Layer_1" enable-background="new 0 0 464 464" height="512" viewBox="0 0 464 464" width="512" xmlns="http://www.w3.org/2000/svg"><g><path d="m7.24 261.775s0 0 .009.01l-.009.01.009.01c50.525 184.725 161.593 200.853 187.022 202.09 1.75.029 3.499.058 5.266.069 52.875.52 109.91-4.27 150.915-22.076 0 0-44.298-165.879 6.878-386.747 0 0-205.857-84.417-351.66-17.669.001-.001-13.748 101.407 1.57 224.303z" fill="#fcf4f6"/><g><path d="m28.453 296.736c-.825 0-1.598-.514-1.887-1.337-.366-1.042.182-2.184 1.224-2.55 56.104-19.728 124.83-18.686 172.605-14.339 51.697 4.704 90.705 14.188 91.093 14.284 1.073.263 1.729 1.346 1.466 2.419-.264 1.073-1.351 1.727-2.419 1.466-.386-.095-39.154-9.518-90.566-14.191-47.359-4.305-115.444-5.347-170.853 14.135-.219.077-.443.113-.663.113z" fill="#51518e"/></g><path d="m7.24 261.775v.02l.009.01c50.525 184.725 161.593 200.853 187.022 202.09 1.75.029 3.499.058 5.266.069-77.207-27.18-69.454-124.466-69.454-124.466-82.962-5.84-122.226-76.603-122.835-77.712-.008-.011-.008-.011-.008-.011z" fill="#f0e3e7"/><g><path d="m28.453 239.893c-.825 0-1.598-.514-1.887-1.337-.366-1.042.182-2.184 1.224-2.55 56.104-19.728 124.83-18.686 172.605-14.339 51.697 4.704 90.705 14.188 91.093 14.284 1.073.263 1.729 1.346 1.466 2.419-.264 1.073-1.351 1.727-2.419 1.466-.386-.095-39.154-9.518-90.566-14.191-47.359-4.305-115.444-5.347-170.853 14.135-.219.076-.443.113-.663.113z" fill="#51518e"/></g><g><path d="m28.453 183.05c-.825 0-1.598-.514-1.887-1.337-.366-1.042.182-2.184 1.224-2.55 56.104-19.728 124.83-18.686 172.605-14.339 51.697 4.704 90.705 14.188 91.093 14.284 1.073.263 1.729 1.346 1.466 2.419-.264 1.073-1.351 1.727-2.419 1.466-.386-.095-39.154-9.518-90.566-14.191-47.359-4.304-115.444-5.347-170.853 14.135-.219.076-.443.113-.663.113z" fill="#51518e"/></g><path d="m464 400.55c0 35.04-52.21 63.45-116.61 63.45s-116.6-28.41-116.6-63.45c0-16.5 11.56-41.26 30.53-62.85 21.31-24.28 51.98-44.56 86.07-44.56 34.46 0 65.44 20.72 86.78 45.36 18.55 21.4 29.83 45.75 29.83 62.05z" fill="#51518e"/><path d="m434.17 338.5c-12.83 10.26-30.94 16.86-30.94 16.86-15.96 4.87-34.39 7.64-54.02 7.64-22.46 0-43.35-3.63-60.77-9.87-13.53-4.98-21.93-10.41-27.12-15.43 21.31-24.28 51.98-44.56 86.07-44.56 34.46 0 65.44 20.72 86.78 45.36z" fill="#3e3e7a"/><g><path d="m420.63 283.85c0 21.89-32.79 39.63-73.24 39.63-40.44 0-73.23-17.74-73.23-39.63 0-5.78 2.29-11.27 6.4-16.22 11.45-13.79 37.07-23.4 66.83-23.4 29.77 0 55.39 9.61 66.84 23.4 4.11 4.95 6.4 10.44 6.4 16.22z" fill="#51518e"/><path d="m414.23 267.63c-11.45 13.8-37.07 23.41-66.84 23.41-29.76 0-55.38-9.61-66.83-23.41 11.45-13.79 37.07-23.4 66.83-23.4 29.77 0 55.39 9.61 66.84 23.4z" fill="#3e3e7a"/></g><path d="m343.619 230.948c-6.336 10.575-14.485 15.214-14.485 15.214-5.054 3.494-10.064 6.365-15.034 8.652-50.248 23.115-95.75-13.248-127.184-59.125 27.118-3.294 61.24-8.335 45.131-11.318-16.991-3.143-42.511-6.572-57.555-8.491-9.529-16.606-17.187-33.515-22.569-48.6-1.973-5.526-4.486-10.942-7.438-16.221 18.904-2.955 44.153-8.603 24.003-15.795-15.093-5.387-30.872-8.733-42.855-10.734-39.599-46.161-100.64-77.779-81.1-82.05 18.168-3.972 86.284-8.23 161.71 30.745 3.795 11.673 10.06 29.539 16.353 41.469 8.939 16.955 17.123-.739 15.803-22.337 18.507 12.55 37.078 27.987 55.139 46.905 1.71 1.792 3.376 3.568 4.994 5.321 1.392 13.75 3.316 30.2 4.813 38.814 1.858 10.726 4.499-11.342 5.994-26.586 50.742 60.083 45.196 95.92 34.28 114.137z" fill="#c5c5ff"/><path d="m186.135 127.891s49.198 14.898 70.357 28.732-3.848-63.316-3.848-63.316 4.017 46.518-66.509 34.584z" fill="#a4a4f7"/><path d="m239.342 207.701s48.418 15.43 69.701 12.77 9.045-58.527 9.045-58.527-12.927 49.328-78.746 45.757z" fill="#a4a4f7"/><path d="m373.908 288.364c-8.221 1.729-17.156 2.675-26.519 2.675-3.908 0-7.736-.161-11.484-.496-1.211-.104-2.421-.219-3.609-.357-26.149-56.9-84.191-149.138-211.006-255.166.001 0 175.507 76.466 252.618 253.344z" fill="#8888e8"/></g></svg>