<svg id="Layer_1" enable-background="new 0 0 512 512" viewBox="0 0 512 512" xmlns="http://www.w3.org/2000/svg"><g><path clip-rule="evenodd" d="m231.82 463.35c127.67 0 231.82-34.13 231.82-75.97s-104.15-75.97-231.82-75.97-231.82 34.14-231.82 75.98 104.14 75.96 231.82 75.96z" fill="#d9ccbc" fill-rule="evenodd"/><path clip-rule="evenodd" d="m231.82 311.42c68.46 0 129.97 9.72 172.4 25.17-3.52 4.62-7.17 9.16-11.03 13.55-41.33 47.11-98.56 73.87-161.38 73.87s-120.05-26.76-161.38-73.87c-3.85-4.39-7.51-8.93-11.03-13.55 42.45-15.45 103.96-25.17 172.42-25.17z" fill="#c3b8a9" fill-rule="evenodd"/><path clip-rule="evenodd" d="m308.98 315.73c56.86 6.58 103.58 20.21 130.28 37.73-28.2 7.65-59.75 9.98-88.3 8.7-10.94-.48-21.97-1.59-32.77-3.49l-16.33-2.83z" fill="#c3b8a9" fill-rule="evenodd"/><path d="m380.72 192.73 15.99-.43c4.85-.14 9.81-.48 14.88-.82 11.25-.77 22.99-1.56 35.06-.57 9.61.77 18.99 2.69 27.75 6.6 9.52 4.22 18 10.63 24.89 20.07 4.37 6.04 7.71 12.76 9.84 19.81 2.15 7.09 3.15 14.54 2.81 21.97-.14 2.95-.51 6.24-1.13 9.84-5.95 34.02-32.66 54.23-66.02 65.34-29.68 9.86-64.77 12.39-93.09 11.11-11.03-.51-21.57-1.67-30.67-3.26l6.69-37.87c6.77 1.16 15.53 2.07 25.74 2.52 24.72 1.13 54.79-.91 79.23-9.04 20.78-6.89 37.19-18.14 40.22-35.52.2-1.13.34-2.75.45-4.88.14-3.12-.25-6.15-1.13-9.01-.94-3.06-2.32-5.92-4.14-8.42-2.55-3.49-5.73-5.87-9.33-7.48-4.37-1.96-9.58-2.95-15.19-3.4-8.9-.71-19.42 0-29.48.68-5.64.37-11.2.74-16.33.88l-15.99.45z" fill="#d4cec7"/><g clip-rule="evenodd" fill-rule="evenodd"><path d="m442.46 158.91c0 149.5-94.31 248.57-210.64 248.57s-210.65-99.07-210.65-248.57z" fill="#ebe5dd"/><path d="m231.82 269.15c116.02 0 210.64-49.52 210.64-110.24s-94.62-110.27-210.64-110.27-210.65 49.56-210.65 110.27c0 60.72 94.62 110.24 210.65 110.24z" fill="#eabc6b"/><path d="m191.76 127.42c12.7 15.51 32.54 20.64 40.05 42.97 7.51-22.34 27.35-27.47 40.05-42.97 46.15-56.35-40.05-74.01-40.05-33.11.01-40.9-86.2-23.24-40.05 33.11z" fill="#fff"/><path d="m232.47 245.88c-36.14-41.27-161.21-38.81-91.08-124.84 5.22 58.51 57.97 48.13 91.08 82.37 33.11-34.24 85.86-23.87 91.08-82.37 70.12 86.03-54.94 83.57-91.08 124.84z" fill="#fff"/><path d="m256.19 260.88c-111 0-201.97-44.96-210.08-101.96-.4-2.75-.6-5.5-.6-8.31 0-36 33.02-68 84.05-88.13-64.66 18.82-108.4 54.96-108.4 96.43 0 60.89 94.31 110.24 210.64 110.24 47.51 0 91.36-8.22 126.62-22.11-30.28 8.82-65.15 13.84-102.23 13.84z" fill="#d3a960"/></g></g></svg>