<svg id="Layer_1" viewBox="0 0 100 100" xmlns="http://www.w3.org/2000/svg" data-name="Layer 1"><path d="m63.81 19.45c-3.93 5.84-11.61 18.8-19.4 32.31-.06-.08-.13-.17-.19-.25-10.98-14.66-16.94-22.18-26.41-22-2.62.05-8.64.98-2.06 8.8 2.88 3.43 12.07 14.58 21.48 26.01-5.98 10.56-11.31 20.16-14.12 25.48-1.02 1.93.38 4.24 2.56 4.24h4.46c1.7 0 3.28-.85 4.21-2.28 2.08-3.2 6.35-9.39 11.56-16.88 6.26 7.62 11.7 14.25 14.23 17.32.96 1.16 2.38 1.83 3.88 1.83h6.06c2.31 0 3.64-2.62 2.27-4.49-4.22-5.74-11.82-16.06-18.85-25.56 11.03-15.79 23.48-33.53 29.03-41.84 11.48-17.2-3.78-24.93-18.73-2.71z" fill="#ed1c24"/></svg>