<svg enable-background="new 0 0 512 512" viewBox="0 0 512 512" xmlns="http://www.w3.org/2000/svg"><g id="Livello_33"/><g id="Livello_34"/><g id="Livello_35"/><g id="Livello_36"/><g id="Livello_32"/><g id="Livello_20"/><g id="Livello_21"/><g id="Livello_22"/><g id="Livello_23"/><g id="Livello_24"/><g id="Livello_25"/><g id="Livello_15"/><g id="Livello_16"/><g id="Livello_17"/><g id="Livello_18"/><g id="Livello_19"/><g id="Livello_14"/><g id="Livello_13"/><g id="Livello_12"/><g id="Livello_11"/><g id="Livello_10"/><g id="Livello_9"/><g id="Livello_8"/><g id="Livello_7"/><g id="Livello_6"/><g id="Livello_5"/><g id="Livello_4"/><g id="_x31_"><g><path d="m471.66 294.61c.07-.45.13-.91.19-1.36-.15 1.16-.3 2.31-.46 3.47.04-.31.08-.61.11-.91-3.63 25.63-9.53 51.05-19.32 75.06.26-.59.52-1.19.77-1.78-.59 1.39-1.17 2.79-1.76 4.18.33-.78.65-1.56.97-2.35-6.04 13.94-13.47 27.25-22.59 39.42-7.32 9.19-15.59 17.55-24.79 24.86.7-.52 1.4-1.05 2.09-1.58-1.18.91-2.36 1.82-3.54 2.73.47-.37.94-.73 1.4-1.11-10.03 7.44-20.91 13.65-32.34 18.71.29-.11.58-.23.86-.34-1.11.47-2.22.93-3.32 1.4.76-.32 1.52-.65 2.28-.98-16.11 6.59-33.05 10.94-50.28 13.43.94-.11 1.89-.23 2.83-.36-1.55.2-3.1.41-4.65.62.58-.08 1.16-.16 1.74-.25-14.13 1.71-28.39 2.11-42.61 2.37-16.37.29-32.76.05-49.09-1.04-8.47-.57-16.92-1.36-25.34-2.43-16.09-2.22-32.22-5.19-47.35-11.15.6.27 1.2.53 1.81.79-1.4-.59-2.79-1.17-4.18-1.76.74.31 1.49.62 2.24.91-9.01-3.96-17.63-8.71-26.03-13.81-8.23-5-16.54-10.11-24.26-15.87-8.3-6.72-15.68-14.43-22.34-22.77-11.5-15.21-20.9-32.02-28.48-49.49-8.4-20.36-14.26-41.7-17.38-63.5-2.46-20.02-2.59-40.29-.14-60.31 2.56-17.72 7.17-35.09 13.93-51.68 7.51-17.23 17.24-33.48 28.56-48.46 11.56-14.7 24.77-28.07 39.45-39.69 13.59-10.28 28.32-19 43.94-25.81 14.58-5.91 29.79-10.11 45.35-12.4 8.23-1 16.52-1.46 24.82-1.4 5.77.04 11.38-3.18 14.63-7.92 9.97.15 19.92.95 29.78 2.19-.75-.11-1.5-.22-2.25-.32 1.55.21 3.1.42 4.65.63-.73-.1-1.46-.19-2.2-.29 27.16 3.87 53.97 11.03 79.36 21.44-.53-.24-1.06-.47-1.59-.69 1.39.59 2.78 1.18 4.18 1.76-.84-.35-1.68-.7-2.53-1.05 15.92 6.85 31.08 15.19 44.95 25.63 12.33 9.79 23.47 21.02 33.2 33.4 9.41 12.57 17.36 26.18 23.64 40.57 6.11 15.03 10.23 30.7 12.6 46.75-.09-.73-.18-1.46-.28-2.19.21 1.55.42 3.1.63 4.65-.11-.8-.22-1.6-.34-2.4 3.34 27.39 1.97 55.17-1.52 82.48z" fill="#ffde00"/><path d="m325.366 325.558c-17.576 0-35.152 0-52.728 0-17.493 0-34.986 0-52.478 0-9.913 0-19.825 0-29.738 0-4.487 0-9.201 1.952-12.374 5.125-1.707 1.585-2.913 3.463-3.618 5.632-1.096 2.085-1.598 4.333-1.507 6.742.203 4.526 1.689 9.22 5.126 12.374 3.424 3.143 7.633 5.126 12.374 5.126h52.728 52.478 29.738c4.487 0 9.201-1.952 12.374-5.126 1.707-1.585 2.913-3.462 3.618-5.632 1.096-2.086 1.598-4.333 1.507-6.742-.203-4.526-1.689-9.22-5.126-12.375-3.423-3.141-7.632-5.124-12.374-5.124z"/><path d="m510.061 240.413c-.432-28.452-4.832-57.22-15.56-83.685-9.915-24.46-23.552-46.733-41.181-66.434-16.35-18.272-36.166-33.854-57.802-45.392-21.832-11.642-45.453-20.312-69.372-26.542-24.607-6.409-50.198-10.483-75.647-10.974-12.121-.234-24.08.684-36.072 2.415-3.792.547-7.979 4.232-10.087 7.446-13.826 1.904-27.476 5.172-40.559 9.821-22.331 7.934-43.346 19.15-62.144 33.59-9.916 7.617-19.387 15.672-28.123 24.63-8.664 8.885-16.537 18.477-23.926 28.44-14.73 19.861-26.466 41.937-34.617 65.288-8.62 24.691-12.762 51.162-13.051 77.282-.291 26.337 3.444 53.007 10.698 78.319 7.297 25.464 18.224 50.236 32.491 72.57 7.539 11.8 16.112 23.177 25.954 33.159 9.989 10.132 21.591 18.19 33.518 25.847 11.626 7.464 23.557 14.547 36.27 20.014 7.365 3.167 14.786 6.115 22.56 8.125 6.997 1.809 14.13 3.181 21.251 4.402 29.951 5.137 60.328 6.836 90.684 6.455 27.949-.351 55.985-1.888 83.08-9.284 26.878-7.336 51.983-19.805 73.476-37.565 19.383-16.017 34.817-37.058 45.905-59.537 11.384-23.08 19.115-47.762 24.031-72.984 5.454-27.986 8.656-56.874 8.223-85.406zm-38.488 55.107c-3.628 25.852-9.554 51.497-19.433 75.707-6.083 14.008-13.56 27.381-22.735 39.601-7.202 8.997-15.315 17.192-24.31 24.4-10.415 7.776-21.737 14.209-33.647 19.405-15.648 6.31-32.051 10.53-48.733 13.005-14.414 1.797-28.964 2.232-43.476 2.492-16.368.293-32.755.052-49.093-1.037-8.864-.591-17.708-1.448-26.518-2.588-15.823-2.229-31.665-5.23-46.537-11.156-8.914-3.944-17.467-8.643-25.793-13.707-8.073-4.91-16.229-9.928-23.838-15.562-8.622-6.914-16.269-14.91-23.132-23.564-11.357-15.145-20.668-31.845-28.196-49.201-8.314-20.222-14.129-41.411-17.259-63.05-2.496-20.205-2.625-40.658-.137-60.87 2.584-17.613 7.18-34.88 13.895-51.372 7.455-17.082 17.093-33.222 28.294-48.111 11.695-14.911 25.071-28.45 39.944-40.197 13.481-10.164 28.061-18.797 43.537-25.556 14.782-6.013 30.216-10.266 46.012-12.564 8.076-.947 16.198-1.391 24.333-1.329 5.761.043 11.363-3.177 14.624-7.911 9.903.142 19.804.929 29.615 2.156 27.586 3.903 54.811 11.196 80.566 21.838 15.422 6.701 30.128 14.807 43.617 24.869 12.402 9.787 23.595 21.007 33.405 33.387 9.55 12.693 17.607 26.444 23.969 40.998 6.143 15.142 10.292 30.927 12.648 47.093 3.331 27.51 1.918 55.397-1.622 82.824z"/><path d="m195.106 234.632c3.099-1.008 5.781-2.731 8.046-5.169 2.438-2.264 4.161-4.946 5.169-8.046 1.565-2.979 2.283-6.19 2.153-9.632-.298-2.215-.595-4.431-.893-6.646-1.188-4.235-3.331-7.912-6.429-11.032-4.891-4.49-10.904-7.322-17.678-7.322-3.442-.13-6.653.588-9.632 2.153-3.099 1.008-5.781 2.731-8.046 5.169-2.438 2.264-4.161 4.946-5.169 8.046-1.565 2.979-2.283 6.19-2.153 9.632.298 2.215.595 4.431.893 6.646 1.188 4.235 3.331 7.912 6.429 11.032 4.891 4.49 10.904 7.322 17.678 7.322 3.442.13 6.653-.588 9.632-2.153z"/><path d="m359.248 205.139c-1.188-4.235-3.331-7.912-6.429-11.032-4.891-4.49-10.904-7.322-17.678-7.322-3.442-.13-6.653.588-9.632 2.153-3.099 1.008-5.781 2.731-8.046 5.169-2.438 2.264-4.161 4.946-5.169 8.046-1.565 2.979-2.283 6.19-2.153 9.632.298 2.215.595 4.431.893 6.646 1.188 4.235 3.331 7.912 6.429 11.032 4.891 4.49 10.904 7.322 17.678 7.322 3.442.13 6.653-.588 9.632-2.153 3.099-1.008 5.781-2.731 8.046-5.169 2.438-2.264 4.161-4.946 5.169-8.046 1.565-2.979 2.283-6.19 2.153-9.632-.298-2.215-.595-4.431-.893-6.646z"/></g></g><g id="Livello_3"/><g id="Livello_1"/></svg>