<svg id="Capa_1" enable-background="new 0 0 512 512" height="512" viewBox="0 0 512 512" width="512" xmlns="http://www.w3.org/2000/svg"><g><path d="m146.431 267.571-11.701-9.925-35.817 9.882-22.321 25.217-9.615 55.138 4.826 9.474c20.824-3.019 46.532-9.937 59.959-25.772 16.216-19.122 18.107-43.686 17.46-58.475z" fill="#ffd086"/><path d="m433.98 188.339c-38.803-45.538-94.709-70.043-163.553-67.09l-11.491 3.77-60.613 70.416 7.043 14.059-20.681 27.312-2.192 9.604c5.426 4.702 11.667 8.552 18.571 11.299 11.424 4.544 21.504 11.749 27.729 22.942l10.226 4.734 16.981 15.453-12.516 43.611-30.025 32.279-64.129 14.079-21.197 26.442-9.645 36.4 8.242 28.845 11.049 9.604c54.421 19.357 134.04 33.791 212.432-2.202 138.698-63.682 154.512-218.537 83.769-301.557z" fill="#dbedff"/><g><path d="m125.362 447.247c3.371-25.754 22.985-46.297 48.511-51.092 52.619-9.884 101.874-34.413 95.165-76.359-3.427-21.422-17.066-33.416-33.463-39.939-3.986-1.586-7.742-3.55-11.256-5.822 5.026 6.193 8.661 13.938 10.208 23.612 6.709 41.946-42.546 66.474-95.165 76.359-25.527 4.795-45.14 25.338-48.511 51.092-3.607 27.541 12.24 53.832 38.177 63.771 2.836 1.087 5.757 2.165 8.75 3.23-9.763-12.349-14.573-28.375-12.416-44.852z" fill="#b5dcff"/></g><path d="m342.553 11.698-16.139 2.756-139.7 167.528 15.733 13.453h6.095l134.647-161.411c4.053-4.859 5.499-11.027 4.502-16.814z" fill="#e39b74"/><path d="m189.042 182.804 137.243-159.21c5.445-6.317 13.872-8.533 21.406-6.384-.798-4.629-3.154-9.015-7.014-12.288-8.686-7.365-21.686-6.349-29.121 2.276l-137.243 159.21v4.969l14.729 12.595z" fill="#dd8858"/><path d="m87.22 287.752c15.176-17.896 37.102-24.193 51.898-26.384l-25.782-21.869-5.963-1.877c-14.696 1.778-38.62 7.657-54.836 26.78-17.535 20.678-16.654 59.545-14.609 80.682.816 8.426 8.178 14.669 16.624 14.097 4.963-.336 10.881-.899 17.251-1.823-1.062-21.77.624-52.161 15.417-69.606z" fill="#ffc365"/><path d="m209.106 195.913-19.924-16.896-11.459 1.288-50.994 63.528v7.898 3.32l18.747 15.897c5.186 4.398 13.027 3.753 17.424-1.433l12.215-14.405-.802-5.096 17.489-22.273h6.521l12.215-14.405c4.399-5.184 3.754-13.025-1.432-17.423z" fill="#938493"/><path d="m173.749 165.93c-5.186-4.398-13.027-3.753-17.424 1.433l-12.215 14.405v5.749l-16.694 20.432-6.515 1.188-12.215 14.405c-4.398 5.186-3.753 13.027 1.433 17.424l18.533 15.716c-3.217-9.69 3.057-16.025 3.057-16.025s36.057-43.912 45.2-54.6c3.9-4.559 8.876-6.005 13.302-6.168z" fill="#7b6c79"/><path d="m163.41 198.136-22.471 27.994 34.176 28.981 23.209-27.369z" fill="#7b6c79"/><path d="m144.109 181.768-23.209 27.369 21.638 18.35c6.789-8.247 15.594-18.925 22.853-27.671z" fill="#665e68"/><path d="m238.503 409.828h-6.18l-13.736 16.693-2.06 22.836 6.31 12.706 6.911 4.636 8.756 2.28c10.588-5.62 17.801-16.753 17.801-29.575 0-12.824-7.214-23.956-17.802-29.576z" fill="#ff636e"/><path d="m220.702 439.403c0-12.823 7.214-23.955 17.801-29.575-4.675-2.482-10.005-3.893-15.667-3.893-18.484 0-33.468 14.984-33.468 33.468s14.984 33.468 33.468 33.468c5.662 0 10.992-1.411 15.667-3.893-10.588-5.62-17.801-16.753-17.801-29.575z" fill="#ff4654"/><path d="m336.745 383.515h-6.18l-13.736 16.693-2.06 22.836 6.31 12.706 6.911 4.636 8.756 2.28c10.588-5.62 17.801-16.753 17.801-29.575-.001-12.823-7.215-23.956-17.802-29.576z" fill="#ffc365"/><path d="m318.943 413.09c0-12.823 7.214-23.955 17.801-29.575-4.675-2.482-10.005-3.893-15.667-3.893-18.484 0-33.468 14.984-33.468 33.468s14.984 33.468 33.468 33.468c5.662 0 10.992-1.411 15.667-3.893-10.587-5.62-17.801-16.753-17.801-29.575z" fill="#ffb640"/><path d="m397.803 294.21h-6.575l-14.612 17.759-2.192 24.293 6.712 13.517 7.352 4.932 9.314 2.425c11.263-5.979 18.937-17.822 18.937-31.462.001-13.642-7.673-25.485-18.936-31.464z" fill="#60b9fe"/><path d="m378.865 325.673c0-13.641 7.674-25.484 18.937-31.463-4.973-2.64-10.644-4.141-16.666-4.141-19.664 0-35.604 15.94-35.604 35.604 0 19.663 15.94 35.604 35.604 35.604 6.023 0 11.693-1.501 16.666-4.141-11.263-5.98-18.937-17.823-18.937-31.463z" fill="#1ca8ff"/><path d="m356.436 189.994h-6.575l-14.612 17.759-2.192 24.293 6.712 13.517 7.352 4.932 9.314 2.425c11.263-5.979 18.937-17.822 18.937-31.462.002-13.642-7.673-25.485-18.936-31.464z" fill="#73d578"/><path d="m337.499 221.457c0-13.641 7.674-25.484 18.937-31.463-4.973-2.64-10.644-4.141-16.666-4.141-19.664 0-35.604 15.94-35.604 35.604 0 19.663 15.94 35.604 35.604 35.604 6.023 0 11.693-1.501 16.666-4.141-11.263-5.98-18.937-17.823-18.937-31.463z" fill="#4bce5b"/></g></svg>