<svg clip-rule="evenodd" fill-rule="evenodd" height="1.707in" image-rendering="optimizeQuality" shape-rendering="geometricPrecision" text-rendering="geometricPrecision" viewBox="0 0 1.70666 1.70666" width="1.707in" xmlns="http://www.w3.org/2000/svg"><g id="Layer_x0020_1"><path d="m.853181 1.70664c-.140098.00001575-.278858-.034622-.401787-.100252l-.404232.0762362c-.0065.00120866-.0131811-.00084252-.0178465-.0055-.00468504-.0046811-.00673622-.0113504-.00551181-.0178465l.076252-.40422c-.175492-.328724-.114425-.741043.149657-1.0051.161161-.161177.375465-.249937.603394-.249937s.442232.0887638.603394.249937c.332709.332724.332709.874079 0 1.2068-.16113.161138-.375406.249874-.603319.249886z" fill="#5ca4da"/><path d="m.853122 1.53666c-.376787 0-.683327-.306539-.683327-.683331 0-.376787.306539-.683327.683327-.683327.376787 0 .683343.306539.683343.683327 0 .376791-.306555.683331-.683343.683331z" fill="#fff"/><path d="m.853122 1.36334c-.28122 0-.509996-.228791-.509996-.510012 0-.28122.228776-.509996.509996-.509996s.509996.228776.509996.509996-.228791.510012-.509996.510012z" fill="#5ca4da"/><path d="m.90022 1.03401h-.0941969c-.0110394 0-.02-.0089685-.02-.02v-.197126c0-.0110394.00896063-.02.02-.02h.0470984c.0469016 0 .0850709-.0381772.0850709-.0850945 0-.0469213-.0381693-.0850827-.0850709-.0850827-.0469173 0-.0850787.0381772-.0850787.0850827v.0470945c0 .0110394-.00896063.02-.02.02h-.0942244c-.0110394 0-.02-.00896063-.02-.02v-.0470945c0-.120929.0983701-.219307.219287-.219307.120929 0 .219303.098374.219303.219307 0 .0962598-.0618307.17998-.152193.208843v.093374c0 .0110276-.00895669.0200039-.0199961.0200039z" fill="#fff"/><path d="m.90022 1.21416h-.0941969c-.0110394 0-.02-.00897244-.02-.02v-.106213c0-.0110354.00896063-.0199961.02-.0199961h.0941969c.0110394 0 .0199961.0089685.0199961.0199961v.106213c0 .0110394-.00895669.02-.0199961.02z" fill="#fff"/><path d="m.100055 1.25506-.076252.40422c-.00122441.00649606.00082677.0131654.00551181.0178465.00466535.00465748.0113465.00670866.0178465.0055l.404232-.0762362c.122929.0656299.261689.100268.401787.100252.212524-.00001181.413189-.0771693.569965-.21824-.059874-.0247913-.117594-.0512283-.173209-.0790512-.111941.0801142-.248972.127311-.396815.127311-.376787 0-.683327-.306539-.683327-.683331 0-.110693.0264567-.215327.0733819-.307902-.0399213-.0552205-.0750315-.10785-.105598-.156579-.16552.256453-.18461.590693-.0375236.866209z" fill="#5596c7"/><path d="m.169795.853327c0 .376791.306539.683331.683327.683331.147843 0 .284874-.0471969.396815-.127311-.0611339-.0305787-.119724-.0628307-.17585-.0964055-.0668898.0322874-.14185.0503976-.220965.0503976-.28122 0-.509996-.228791-.509996-.510012 0-.0522205.00788976-.10263.0225354-.150106-.0450354-.0540984-.0857913-.107039-.122484-.157795-.0469252.0925748-.0733819.197209-.0733819.307902z" fill="#ebebeb"/><path d="m.343126.853327c0 .28122.228776.510012.509996.510012.0791142 0 .154079-.0181102.220965-.0503976-.0559094-.0334488-.10937-.0682126-.160453-.103949-.00354724.0032126-.00825197.00516929-.0134134.00516929h-.0941969c-.0110394 0-.02-.00897244-.02-.02v-.080126c-.168945-.133547-.307969-.275795-.420362-.410815-.0146457.0474764-.0225354.0978858-.0225354.150106z" fill="#5596c7"/><path d="m.786024 1.11404v.080126c0 .0110276.00896063.02.02.02h.0941969c.00516142 0 .00986614-.00195669.0134134-.00516929-.044311-.0309961-.0868307-.0627244-.12761-.0949567z" fill="#ebebeb"/></g></svg>