<svg enable-background="new 0 0 512 512" viewBox="0 0 512 512" xmlns="http://www.w3.org/2000/svg"><g id="Livello_33"/><g id="Livello_34"/><g id="Livello_35"/><g id="Livello_36"/><g id="Livello_32"/><g id="Livello_20"/><g id="Livello_21"/><g id="Livello_22"/><g id="Livello_23"/><g id="Livello_24"/><g id="Livello_25"/><g id="Livello_15"/><g id="Livello_16"/><g id="Livello_17"/><g id="Livello_18"/><g id="Livello_19"/><g id="Livello_14"/><g id="Livello_13"/><g id="Livello_12"/><g id="Livello_11"/><g id="Livello_10"><g><path d="m471.66 294.61c.07-.45.13-.91.19-1.36-.15 1.16-.3 2.31-.46 3.47.04-.31.08-.61.11-.91-3.63 25.63-9.53 51.05-19.32 75.06.26-.59.52-1.19.77-1.78-.59 1.39-1.17 2.79-1.76 4.18.33-.78.65-1.56.97-2.35-6.04 13.94-13.47 27.25-22.59 39.42-7.32 9.19-15.59 17.55-24.79 24.86.7-.52 1.4-1.05 2.09-1.58-1.18.91-2.36 1.82-3.54 2.73.47-.37.94-.73 1.4-1.11-10.03 7.44-20.91 13.65-32.34 18.71.29-.11.58-.23.86-.34-1.11.47-2.22.93-3.32 1.4.76-.32 1.52-.65 2.28-.98-16.11 6.59-33.05 10.94-50.28 13.43.94-.11 1.89-.23 2.83-.36-1.55.2-3.1.41-4.65.62.58-.08 1.16-.16 1.74-.25-14.13 1.71-28.39 2.11-42.61 2.37-16.37.29-32.76.05-49.09-1.04-8.47-.57-16.92-1.36-25.34-2.43-16.09-2.22-32.22-5.19-47.35-11.15.6.27 1.2.53 1.81.79-1.4-.59-2.79-1.17-4.18-1.76.74.31 1.49.62 2.24.91-9.01-3.96-17.63-8.71-26.03-13.81-8.23-5-16.54-10.11-24.26-15.87-8.3-6.72-15.68-14.43-22.34-22.77-11.5-15.21-20.9-32.02-28.48-49.49-8.4-20.36-14.26-41.7-17.38-63.5-2.46-20.02-2.59-40.29-.14-60.31 2.56-17.72 7.17-35.09 13.93-51.68 7.51-17.23 17.24-33.48 28.56-48.46 11.56-14.7 24.77-28.07 39.45-39.69 13.59-10.28 28.32-19 43.94-25.81 14.58-5.91 29.79-10.11 45.35-12.4 8.23-1 16.52-1.46 24.82-1.4 5.77.04 11.38-3.18 14.63-7.92 9.97.15 19.92.95 29.78 2.19-.75-.11-1.5-.22-2.25-.32 1.55.21 3.1.42 4.65.63-.73-.1-1.46-.19-2.2-.29 27.16 3.87 53.97 11.03 79.36 21.44-.53-.24-1.06-.47-1.59-.69 1.39.59 2.78 1.18 4.18 1.76-.84-.35-1.68-.7-2.53-1.05 15.92 6.85 31.08 15.19 44.95 25.63 12.33 9.79 23.47 21.02 33.2 33.4 9.41 12.57 17.36 26.18 23.64 40.57 6.11 15.03 10.23 30.7 12.6 46.75-.09-.73-.18-1.46-.28-2.19.21 1.55.42 3.1.63 4.65-.11-.8-.22-1.6-.34-2.4 3.34 27.39 1.97 55.17-1.52 82.48z" fill="#ffde00"/><path d="m510.061 240.119c-.432-28.452-4.832-57.22-15.56-83.685-9.915-24.46-23.552-46.733-41.181-66.434-16.35-18.272-36.166-33.854-57.802-45.392-21.832-11.642-45.453-20.312-69.372-26.542-24.607-6.409-50.198-10.483-75.647-10.974-12.121-.234-24.08.684-36.072 2.415-3.792.547-7.979 4.232-10.087 7.446-13.826 1.904-27.476 5.172-40.559 9.821-22.331 7.934-43.346 19.15-62.144 33.59-9.916 7.617-19.387 15.672-28.123 24.63-8.664 8.885-16.537 18.477-23.926 28.44-14.73 19.861-26.466 41.937-34.617 65.288-8.62 24.691-12.762 51.162-13.051 77.282-.291 26.337 3.444 53.007 10.698 78.319 7.297 25.464 18.224 50.236 32.491 72.57 7.539 11.8 16.112 23.177 25.954 33.159 9.989 10.132 21.591 18.19 33.518 25.847 11.626 7.464 23.558 14.547 36.271 20.014 7.365 3.167 14.786 6.115 22.56 8.125 6.997 1.809 14.13 3.181 21.251 4.402 29.951 5.137 60.328 6.836 90.684 6.455 27.949-.351 55.985-1.888 83.08-9.284 26.878-7.336 51.983-19.805 73.476-37.565 19.383-16.017 34.817-37.058 45.905-59.537 11.384-23.08 19.115-47.762 24.031-72.984 5.453-27.985 8.655-56.874 8.222-85.406zm-38.488 55.108c-3.628 25.852-9.554 51.498-19.433 75.708-6.083 14.008-13.56 27.381-22.735 39.601-7.202 8.997-15.315 17.192-24.31 24.4-10.415 7.776-21.736 14.208-33.646 19.404-15.647 6.31-32.051 10.53-48.732 13.004-14.414 1.797-28.964 2.232-43.476 2.492-16.368.293-32.755.052-49.093-1.037-8.864-.591-17.708-1.448-26.518-2.588-15.823-2.229-31.667-5.231-46.539-11.156-8.913-3.944-17.465-8.642-25.791-13.706-8.072-4.91-16.228-9.928-23.837-15.561-8.622-6.914-16.27-14.911-23.133-23.565-11.357-15.144-20.668-31.845-28.195-49.2-8.314-20.222-14.129-41.411-17.26-63.05-2.496-20.206-2.625-40.659-.137-60.87 2.584-17.614 7.18-34.881 13.895-51.372 7.454-17.081 17.093-33.221 28.293-48.109 11.695-14.911 25.071-28.45 39.944-40.198 13.481-10.164 28.061-18.797 43.536-25.556 14.782-6.013 30.216-10.266 46.012-12.564 8.077-.947 16.199-1.391 24.335-1.33 5.761.043 11.363-3.177 14.624-7.911 9.903.143 19.804.929 29.615 2.156 27.588 3.903 54.814 11.196 80.57 21.839 15.421 6.701 30.127 14.807 43.616 24.869 12.401 9.786 23.594 21.006 33.404 33.386 9.55 12.693 17.607 26.444 23.969 40.999 6.143 15.142 10.292 30.927 12.648 47.094 3.327 27.507 1.914 55.394-1.626 82.821z"/><path d="m161.367 218.431c1.188 4.235 3.331 7.912 6.429 11.032 4.891 4.49 10.904 7.322 17.678 7.322 3.442.13 6.653-.588 9.632-2.153 3.099-1.008 5.781-2.731 8.046-5.169 2.438-2.264 4.161-4.946 5.169-8.046 1.565-2.979 2.283-6.19 2.153-9.632-.298-2.215-.595-4.431-.893-6.646-1.188-4.235-3.331-7.912-6.429-11.032-4.891-4.49-10.904-7.322-17.678-7.322-3.442-.13-6.653.588-9.632 2.153-3.099 1.008-5.781 2.731-8.046 5.169-2.438 2.264-4.161 4.946-5.169 8.046-1.565 2.979-2.283 6.19-2.153 9.632.298 2.215.596 4.431.893 6.646z"/><path d="m311.034 218.431c1.188 4.235 3.331 7.912 6.429 11.032 4.891 4.49 10.904 7.322 17.678 7.322 3.442.13 6.653-.588 9.632-2.153 3.099-1.008 5.781-2.731 8.046-5.169 2.438-2.264 4.161-4.946 5.169-8.046 1.565-2.979 2.283-6.19 2.153-9.632-.298-2.215-.595-4.431-.893-6.646-1.188-4.235-3.331-7.912-6.429-11.032-4.891-4.49-10.904-7.322-17.678-7.322-3.442-.13-6.653.588-9.632 2.153-3.099 1.008-5.781 2.731-8.046 5.169-2.438 2.264-4.161 4.946-5.169 8.046-1.565 2.979-2.283 6.19-2.153 9.632.298 2.215.595 4.431.893 6.646z"/><path d="m411.933 344.15c-2.384-7.175-5.37-14.233-8.917-20.912-3.618-6.812-8.06-13-12.843-19.038-3.819-4.82-8.091-9.284-12.778-13.267-5.984-5.086-12.377-9.733-19.308-13.442-14.394-7.701-30.314-12.646-46.252-15.957-30.953-6.43-63.327-6.961-94.063 1.019-28.089 7.293-54.354 22.114-74.142 43.47-9.283 10.018-17.495 21.367-23.479 33.67-3.259 6.701-6.138 13.676-8.291 20.816-2.222 7.367-3.463 14.895-4.354 22.53-.348 2.98-.556 5.973-.638 8.972-.121 4.409 2.037 9.286 5.126 12.374 3.035 3.035 8.015 5.321 12.374 5.126 4.526-.203 9.22-1.689 12.374-5.126 3.192-3.477 4.995-7.591 5.126-12.374.074-2.703.257-5.4.544-8.087 1.237-7.875 3.38-15.573 6.314-22.984 3.638-8.147 8.197-15.846 13.512-23.011 6.069-7.567 12.96-14.438 20.525-20.508 7.966-5.923 16.552-10.897 25.621-14.928 11.644-4.695 23.833-7.879 36.251-9.699 15.106-1.756 30.386-1.552 45.476.295 14.673 2.14 29.367 5.644 43.149 11.155 6.329 2.817 12.374 6.194 17.971 10.277 4.932 4.037 9.422 8.574 13.447 13.516 4.445 6.035 8.207 12.538 11.28 19.374 3.043 7.667 5.227 15.646 6.52 23.792.535 4.754.784 9.533.698 14.319-.079 4.436 2.008 9.257 5.126 12.374 3.035 3.035 8.015 5.321 12.374 5.126 4.526-.203 9.22-1.689 12.374-5.126 3.175-3.459 5.04-7.605 5.126-12.374.14-7.808-.685-15.522-1.871-23.234-.945-6.154-2.409-12.229-4.372-18.138z"/></g></g><g id="Livello_9"/><g id="Livello_8"/><g id="Livello_7"/><g id="Livello_6"/><g id="Livello_5"/><g id="Livello_4"/><g id="_x31_"/><g id="Livello_3"/><g id="Livello_1"/></svg>