<?xml version="1.0" encoding="iso-8859-1"?>
<!-- Generator: Adobe Illustrator 19.0.0, SVG Export Plug-In . SVG Version: 6.00 Build 0)  -->
<svg version="1.1" id="Layer_1" xmlns="http://www.w3.org/2000/svg" xmlns:xlink="http://www.w3.org/1999/xlink" x="0px" y="0px"
	 viewBox="0 0 512 512" style="enable-background:new 0 0 512 512;" xml:space="preserve">
<path style="fill:#FFDB2D;" d="M437.976,265.253h-37.012V141.88c0-57.824-47.044-104.867-104.867-104.867
	S191.229,84.056,191.229,141.88h-37.012C154.217,63.647,217.864,0,296.096,0s141.88,63.647,141.88,141.88V265.253z"/>
<path style="fill:#FFAF33;" d="M296.096,0v37.012c57.824,0,104.867,47.044,104.867,104.867v123.374h37.012V141.88
	C437.976,63.647,374.329,0,296.096,0z"/>
<rect x="123.373" y="240.578" style="fill:#FFEA8A;" width="345.446" height="271.422"/>
<rect x="296.096" y="240.578" style="fill:#FFDB2D;" width="172.723" height="271.422"/>
<path style="fill:#88888F;" d="M314.602,390.866V326.94H277.59v63.926c-3.827,4.348-6.169,10.033-6.169,16.267
	c0,13.606,11.069,24.675,24.675,24.675c13.606,0,24.675-11.069,24.675-24.675C320.771,400.898,318.429,395.215,314.602,390.866z"/>
<g>
	<rect x="43.181" y="123.373" style="fill:#CFCDD2;" width="74.024" height="37.012"/>
	
		<rect x="70.283" y="57.938" transform="matrix(-0.7071 -0.7071 0.7071 -0.7071 129.1099 206.3665)" style="fill:#CFCDD2;" width="74.023" height="37.012"/>
</g>
<g>
</g>
<g>
</g>
<g>
</g>
<g>
</g>
<g>
</g>
<g>
</g>
<g>
</g>
<g>
</g>
<g>
</g>
<g>
</g>
<g>
</g>
<g>
</g>
<g>
</g>
<g>
</g>
<g>
</g>
</svg>
