<?xml version="1.0" encoding="UTF-8" standalone="no"?>
<!-- Created with Inkscape (http://www.inkscape.org/) -->

<svg
   version="1.1"
   id="svg147"
   xml:space="preserve"
   width="682.66669"
   height="682.66669"
   viewBox="0 0 682.66669 682.66669"
   xmlns="http://www.w3.org/2000/svg"
   xmlns:svg="http://www.w3.org/2000/svg"><defs
     id="defs151"><clipPath
       clipPathUnits="userSpaceOnUse"
       id="clipPath165"><path
         d="M 0,512 H 512 V 0 H 0 Z"
         id="path163" /></clipPath></defs><g
     id="g153"
     transform="matrix(1.3333333,0,0,-1.3333333,0,682.66667)"><g
       id="g155"
       transform="translate(255.8091,449.5093)"><path
         d="M 0,0 V -390.731"
         style="fill:none;stroke:#000000;stroke-width:15;stroke-linecap:round;stroke-linejoin:round;stroke-miterlimit:10;stroke-dasharray:none;stroke-opacity:1"
         id="path157" /></g><g
       id="g159"><g
         id="g161"
         clip-path="url(#clipPath165)"><g
           id="g167"
           transform="translate(283.127,491.4146)"><path
             d="m 0,0 -11.624,8.178 c -9.3,6.543 -21.706,6.543 -31.006,0 L -54.254,0 c -45.109,-31.738 -98.095,-50.427 -153.133,-54.014 -14.17,-0.924 -25.19,-12.686 -25.19,-26.885 v -70.457 c 0,-117.303 54.775,-227.878 148.092,-298.956 l 33.583,-25.579 c 14.045,-10.698 33.505,-10.698 47.55,0 l 33.583,25.579 c 93.317,71.078 148.092,181.653 148.092,298.956 v 70.457 c 0,14.199 -11.02,25.961 -25.19,26.885 C 98.094,-50.427 45.109,-31.738 0,0 Z"
             style="fill:none;stroke:#000000;stroke-width:15;stroke-linecap:round;stroke-linejoin:round;stroke-miterlimit:10;stroke-dasharray:none;stroke-opacity:1"
             id="path169" /></g><g
           id="g171"
           transform="translate(96.4897,348.1704)"><path
             d="m 0,0 v 37.497 c 0,4.816 3.777,8.76 8.586,9.02 62.552,3.374 128.109,42.08 146.112,53.441 2.944,1.858 6.68,1.858 9.624,0 18.004,-11.361 83.561,-50.067 146.112,-53.441 4.809,-0.26 8.587,-4.204 8.587,-9.02 V -6.835 c 0,-50.52 -11.854,-101.152 -34.279,-146.421 -10.829,-21.862 -24.148,-42.52 -39.552,-61.487"
             style="fill:none;stroke:#000000;stroke-width:15;stroke-linecap:round;stroke-linejoin:round;stroke-miterlimit:10;stroke-dasharray:none;stroke-opacity:1"
             id="path173" /></g><g
           id="g175"
           transform="translate(317.4033,106.6479)"><path
             d="m 0,0 c -10.024,-9.916 -20.677,-19.188 -31.882,-27.723 l -24.045,-18.315 c -3.235,-2.463 -7.718,-2.463 -10.952,0 l -24.045,18.315 c -40.19,30.612 -73.286,70.72 -95.711,115.99 -18.136,36.611 -29.358,76.73 -32.987,117.46"
             style="fill:none;stroke:#000000;stroke-width:15;stroke-linecap:round;stroke-linejoin:round;stroke-miterlimit:10;stroke-dasharray:none;stroke-opacity:1"
             id="path177" /></g></g></g></g></svg>
