<svg id="Layer_3" height="512" viewBox="0 0 64 64" width="512" xmlns="http://www.w3.org/2000/svg" data-name="Layer 3"><path d="m32 62a30 30 0 0 1 0-60z" fill="#fce797"/><path d="m32 62a30 30 0 0 0 0-60z" fill="#474747"/><path d="m32 9-1.079 1.619a4 4 0 0 1 -6.358.392l-.524-.608-.5 2.746a4 4 0 0 1 -4.72 3.2l-3.081-.616.493 1.808a4 4 0 0 1 -3.708 5.049l-1.3.05 1.412 2a4 4 0 0 1 -1.049 5.635l-2.586 1.725 2.093 1.4a4 4 0 0 1 .715 6.047l-1.119 1.208 1.994.167a4 4 0 0 1 3.589 4.77l-.535 2.675 2.463-.497a4 4 0 0 1 4.781 3.771l.063 1.645 1.528-1.292a4 4 0 0 1 5.911.836l1.517 2.27" fill="#f9d266"/><path d="m32 46a14 14 0 0 1 0-28" fill="#f4a93c"/><path d="m50.074 21.435a9 9 0 0 1 -14.053 11.248 11 11 0 1 0 14.053-11.248z" fill="#f9d266"/><path d="m46 15a5 5 0 0 0 -5 5 5 5 0 0 0 -5-5 5 5 0 0 0 5-5 5 5 0 0 0 5 5z" fill="#f2f2f2"/><path d="m46 51a5 5 0 0 0 -5 5 5 5 0 0 0 -5-5 5 5 0 0 0 5-5 5 5 0 0 0 5 5z" fill="#f2f2f2"/><g fill="#fce797"><path d="m45 24h-2v2h-2v2h2v2h2v-2h2v-2h-2z"/><path d="m54 47h-2v-2h-2v2h-2v2h2v2h2v-2h2z"/></g></svg>