<svg id="Capa_1" enable-background="new 0 0 512 512" height="512" viewBox="0 0 512 512" width="512" xmlns="http://www.w3.org/2000/svg"><g><path d="m508.203 372.717-97.073 97.073c-4.761 4.761-12.682 4.006-16.457-1.57l-84.536-124.857 36.025-73.283 69.69 9.103 91.364 74.311c5.962 4.849 6.421 13.79.987 19.223z" fill="#ffcebf"/><path d="m508.199 372.712-97.064 97.074c-4.77 4.77-12.682 4.007-16.462-1.566l-5.202-7.675 87.823-87.833c5.439-5.429 4.976-14.371-.979-19.213l-78.16-63.572-.845-13.166 18.543 2.421 91.367 74.317c5.954 4.842 6.418 13.784.979 19.213z" fill="#ffb09e"/><path d="m415.853 279.183-133.718 81.182c-9.893 6.001-21.232 9.176-32.802 9.176h-65.445c-8.86 0-16.876 5.274-20.388 13.406l-35.154 81.518c-2.999 6.954-12.068 8.69-17.424 3.335l-106.113-106.113c-6.023-6.023-6.44-15.651-.961-22.172l150.201-178.777 129.267-47.104 70.234-25.598c2.9-1.055 5.875-1.561 8.796-1.561 10.505 0 20.356 6.476 24.164 16.918 4.862 13.342-2.014 28.098-15.357 32.96 2.911-1.055 5.885-1.561 8.807-1.561 10.494 0 20.346 6.476 24.153 16.907 4.862 13.342-2.014 28.098-15.357 32.96 13.184-4.809 27.75 1.856 32.791 14.882 5.189 13.448-2.183 28.688-15.726 33.625l-5.949 2.173c12.108-4.419 25.503 1.825 29.912 13.933 4.41 12.107-1.823 25.492-13.931 29.911z" fill="#ffdfcf"/><path d="m152.982 369.539h30.905c-8.86 0-16.874 5.275-20.387 13.403l-35.15 81.518c-3.008 6.964-12.074 8.695-17.431 3.338l-10.425-10.425 32.1-74.431c3.514-8.128 11.528-13.403 20.388-13.403z" fill="#ffcebf"/><path d="m415.853 279.182-133.717 81.178c-9.89 6.006-21.232 9.179-32.801 9.179h-30.905c11.569 0 22.911-3.173 32.801-9.179l133.717-81.178c12.105-4.419 18.337-17.802 13.928-29.906-2.344-6.434-7.223-11.216-13.091-13.613-.99-.404-1.736-1.242-2.05-2.264l-.677-2.205c-.406-1.321-.011-2.746.991-3.697 7.378-7.007 10.447-17.971 6.596-27.958-3.426-8.836-11.242-14.751-20.031-16.127-1.393-.218-2.555-1.176-2.968-2.524-.369-1.205-.073-2.505.755-3.453 5.962-6.827 8.123-16.617 4.802-25.737-2.993-8.217-9.752-13.981-17.617-16.054-1.211-.319-2.173-1.234-2.54-2.43l-.985-3.211c-.322-1.05-.153-2.193.475-3.095 4.619-6.639 6.047-15.347 3.071-23.516-1.947-5.326-5.45-9.612-9.818-12.537l7.757-2.823c2.905-1.051 5.872-1.556 8.798-1.556 10.508 0 20.356 6.47 24.168 16.916 4.862 13.341-2.019 28.103-15.36 32.966 2.915-1.061 5.882-1.566 8.808-1.566 10.497 0 20.346 6.48 24.147 16.905 4.862 13.341-2.009 28.103-15.35 32.966 13.186-4.811 27.743 1.854 32.791 14.876 5.192 13.454-2.184 28.691-15.731 33.625l-5.944 2.174c12.105-4.42 25.497 1.823 29.906 13.938 4.411 12.105-1.821 25.487-13.926 29.906z" fill="#ffcebf"/><path d="m337.698 75.442c-2.468 6.729-6.36 12.731-11.317 17.677-4.957 4.936-10.969 8.817-17.709 11.275l-154.622 56.343 45.659-62.165c.401-.548.812-1.086 1.223-1.614 6.434-8.258 14.597-15.019 23.942-19.787l30.524-15.61 4.683-2.394c8.522-4.356 17.962-6.624 27.528-6.624h34.099c11.845.001 20.072 11.783 15.99 22.899z" fill="#ffdfcf"/><path d="m337.693 75.443c-2.462 6.727-6.356 12.733-11.311 17.678-4.955 4.935-10.972 8.818-17.709 11.27l-154.62 56.351 11.291-15.381 112.424-40.97c6.737-2.452 12.754-6.336 17.709-11.27 4.955-4.945 8.849-10.951 11.311-17.678 4.09-11.116-4.141-22.901-15.988-22.901h30.905c11.847 0 20.078 11.786 15.988 22.901z" fill="#ffcebf"/><path d="m323.742 98.9-51.888-54.256c-7.395-7.732-19.853-7.373-26.79.771-14.259 16.74-13.524 41.558 1.7 57.425l7.616 7.937c6.006 5.986 14.933 7.956 22.9 5.053z" fill="#ffcebf"/><path d="m323.745 98.9-46.461 16.926c-7.252 2.648-15.298 1.257-21.211-3.533l22.97-8.367c6.503-2.369 8.431-10.636 3.648-15.638l-39.166-40.948c.484-.659.999-1.298 1.535-1.926 6.943-8.138 19.398-8.499 26.795-.773z" fill="#ffb09e"/><path d="m183.959 120.305 38.308 30.631c11.089 8.867 27.267 7.066 36.135-4.024 8.867-11.089 7.066-27.267-4.024-36.134l-38.308-30.631c-11.089-8.867-27.267-7.066-36.134 4.024-8.867 11.089-7.066 27.267 4.023 36.134z" fill="#ffcebf"/><path d="m264.035 130.877c0 5.625-1.844 11.301-5.635 16.04-8.715 10.889-24.467 12.815-35.531 4.481 1.689-1.257 3.245-2.761 4.626-4.481 3.791-4.739 5.635-10.415 5.635-16.04 0-7.551-3.307-15.02-9.653-20.099l-38.312-30.627c-.196-.165-.402-.319-.608-.464 9.158-6.902 22.149-7.026 31.513.464l38.312 30.627c6.347 5.079 9.653 12.548 9.653 20.099z" fill="#ffb09e"/><path d="m151.849 160.463 38.308 30.631c11.089 8.867 27.267 7.066 36.134-4.024 8.867-11.089 7.066-27.267-4.024-36.134l-38.308-30.631c-11.089-8.867-27.267-7.066-36.135 4.024-8.866 11.089-7.065 27.267 4.025 36.134z" fill="#ffcebf"/><path d="m231.925 171.034c0 5.625-1.844 11.301-5.635 16.04-8.715 10.889-24.467 12.816-35.531 4.481 1.69-1.257 3.245-2.761 4.626-4.481 3.791-4.739 5.635-10.415 5.635-16.04 0-7.551-3.307-15.02-9.653-20.099l-38.312-30.627c-.196-.165-.402-.319-.608-.464 9.158-6.902 22.149-7.026 31.513.464l38.312 30.627c6.346 5.079 9.653 12.547 9.653 20.099z" fill="#ffb09e"/><path d="m119.738 200.622 38.308 30.631c11.089 8.867 27.267 7.066 36.135-4.024 8.867-11.089 7.066-27.267-4.024-36.134l-38.308-30.631c-11.089-8.867-27.267-7.066-36.134 4.024-8.868 11.089-7.066 27.267 4.023 36.134z" fill="#ffcebf"/><path d="m199.814 211.19c0 5.625-1.844 11.301-5.635 16.04-8.715 10.889-24.477 12.826-35.541 4.481 1.69-1.246 3.255-2.751 4.636-4.481 3.791-4.739 5.635-10.415 5.635-16.04 0-7.551-3.307-15.02-9.653-20.099l-38.312-30.627c-.196-.165-.402-.319-.608-.464 9.158-6.902 22.149-7.026 31.513.464l38.312 30.627c6.346 5.079 9.653 12.548 9.653 20.099z" fill="#ffb09e"/><path d="m95.99 241.383 34.768 27.801c10.065 8.048 24.748 6.413 32.796-3.652 8.048-10.065 6.413-24.748-3.652-32.796l-34.768-27.801c-10.065-8.048-24.748-6.413-32.796 3.652-8.048 10.065-6.413 24.749 3.652 32.796z" fill="#ffcebf"/><path d="m168.661 250.976c0 5.11-1.669 10.25-5.11 14.557-8.046 10.065-22.726 11.703-32.791 3.647l-.896-.721c.989-.876 1.926-1.854 2.781-2.926 3.441-4.306 5.11-9.447 5.11-14.557 0-6.851-2.998-13.629-8.757-18.234l-33.872-27.094c8.344-7.366 21.016-7.891 30.009-.711l34.769 27.805c5.759 4.604 8.757 11.383 8.757 18.234z" fill="#ffb09e"/></g></svg>