<svg clip-rule="evenodd" fill-rule="evenodd" height="7.111in" image-rendering="optimizeQuality" shape-rendering="geometricPrecision" text-rendering="geometricPrecision" viewBox="0 0 7111 7111" width="7.111in" xmlns="http://www.w3.org/2000/svg"><g id="Layer_x0020_1"><g id="_304448536"><path d="m5500 6917c92 0 168-75 168-168v-6387c0-92-76-168-168-168h-3889c-92 0-168 76-168 168v6387c0 93 76 168 168 168z" fill="#80d6fb"/><path d="m5463 7111h-3815c-233 0-422-189-422-422v-6267c0-233 189-422 422-422h3815c233 0 422 189 422 422v6267c0 233-189 422-422 422zm0-257c91 0 165-74 165-165v-6267c0-91-74-165-165-165h-3815c-91 0-165 74-165 165v6267c0 91 74 165 165 165z" fill="#707384"/><path d="m4557 6496h-2003c-106 0-106-161 0-161h2003c106 0 106 161 0 161z" fill="#fff" stroke="#c4ced3" stroke-width="3"/><path d="m2616 1211c10 34 41 58 77 58h1725c36 0 67-24 77-58l274-954 8-26c9-34 18-137 17-231h-2484c7 103 18 210 24 231z" fill="#676a79"/><path d="m4190 779h-1269c-105 0-105-160 0-160h1269c105 0 105 160 0 160z" fill="#fff"/><path d="m5537 274-4014 6523c30 35 75 57 125 57h3815c91 0 165-74 165-165v-6267c0-65-37-121-91-148zm-2983 6061h2003c106 0 106 161 0 161h-2003c-106 0-106-161 0-161z" fill="#52cbff"/></g><g fill="#52cbff"><path d="m6193 4983c-86 0-116-115-40-156 488-269 791-782 791-1338 0-557-303-1070-791-1339-96-52-16-198 80-146 542 298 878 867 878 1485 0 617-336 1186-878 1484-13 7-26 10-40 10z"/><path d="m6070 4320c-86 0-116-115-40-156 531-292 531-1058 0-1351-97-53-16-199 80-146 300 165 486 480 486 822 0 341-186 656-486 821-13 7-27 10-40 10z"/><path d="m918 4983c-13 0-27-3-40-10-542-298-878-867-878-1484 0-618 336-1187 878-1485 96-52 177 94 80 146-488 269-791 782-791 1339 0 556 303 1069 791 1338 76 41 46 156-40 156z"/><path d="m1041 4320c-13 0-27-3-40-10-646-356-646-1287 0-1643 96-53 177 93 80 146-531 293-531 1059 0 1351 76 41 46 156-40 156z"/></g></g></svg>