<svg width="900" height="900" viewBox="0 0 900 900" fill="none" xmlns="http://www.w3.org/2000/svg">
<g clip-path="url(#clip0_275_313)">
<g filter="url(#filter0_i_275_313)">
<g clip-path="url(#clip1_275_313)">
<rect x="750" y="150" width="600" height="600" rx="100" transform="rotate(90 750 150)" fill="#5E9EEF"/>
<path d="M451 449.083C251 249.165 151 449 151 449V150L750 150V449C750 449 651 649 451 449.083Z" fill="#DBE7FF" stroke="#E8EDF8" stroke-width="2"/>
<path d="M449.499 450.851C649.833 650.812 750 450.933 750 450.933V750L150 750L150 450.933C150 450.933 249.165 250.889 449.499 450.851Z" fill="#4285F4"/>
<rect width="200" height="200" transform="matrix(0 1 -1 0 750 150)" fill="#DBE7FF"/>
<rect width="200" height="200" transform="matrix(0 1 -1 0 750 550)" fill="#4285F4"/>
<path d="M612.761 680.636V665.136L651.625 603.909H664.989V625.364H657.08L632.58 664.136V664.864H687.807V680.636H612.761ZM657.443 697V675.909L657.807 669.045V603.909H676.261V697H657.443Z" fill="#F1F4FB"/>
<rect width="200" height="200" transform="matrix(0 1 -1 0 550 150)" fill="#DBE7FF"/>
<path d="M433.267 296.091V203H452.949V277.409H453.494L474.812 264.045V281.5L451.767 296.091H433.267Z" fill="#5B5D6E"/>
<rect width="200" height="200" transform="matrix(0 1 -1 0 550 550)" fill="#4285F4"/>
<path d="M450.295 698.273C443.871 698.273 438.144 697.091 433.114 694.727C428.114 692.364 424.144 689.106 421.205 684.955C418.265 680.803 416.735 676.045 416.614 670.682H435.705C435.917 674.288 437.432 677.212 440.25 679.455C443.068 681.697 446.417 682.818 450.295 682.818C453.386 682.818 456.114 682.136 458.477 680.773C460.871 679.379 462.735 677.455 464.068 675C465.432 672.515 466.114 669.667 466.114 666.455C466.114 663.182 465.417 660.303 464.023 657.818C462.659 655.333 460.765 653.394 458.341 652C455.917 650.606 453.144 649.894 450.023 649.864C447.295 649.864 444.644 650.424 442.068 651.545C439.523 652.667 437.538 654.197 436.114 656.136L418.614 653L423.023 603.909H479.932V620H439.25L436.841 643.318H437.386C439.023 641.015 441.492 639.106 444.795 637.591C448.098 636.076 451.795 635.318 455.886 635.318C461.492 635.318 466.492 636.636 470.886 639.273C475.28 641.909 478.75 645.53 481.295 650.136C483.841 654.712 485.098 659.985 485.068 665.955C485.098 672.227 483.644 677.803 480.705 682.682C477.795 687.53 473.72 691.349 468.477 694.136C463.265 696.894 457.205 698.273 450.295 698.273Z" fill="#F1F4FB"/>
<rect width="200" height="200" transform="matrix(0 1 -1 0 350 150)" fill="#DBE7FF"/>
<path d="M282.767 203V217.182L249.631 247.864C246.812 250.591 244.449 253.045 242.54 255.227C240.6 257.409 239.131 259.545 238.131 261.636C237.131 263.758 236.631 266.045 236.631 268.5C236.631 271.227 237.252 273.576 238.494 275.545C239.737 277.545 241.434 279.076 243.585 280.136C245.737 281.227 248.176 281.773 250.903 281.773C253.752 281.773 256.237 281.197 258.358 280.045C260.479 278.894 262.116 277.242 263.267 275.091C264.419 272.939 264.994 270.379 264.994 267.409H283.676C283.676 273.5 282.297 278.788 279.54 283.273C276.782 287.758 272.919 291.227 267.949 293.682C262.979 296.136 257.252 297.364 250.767 297.364C244.1 297.364 238.297 296.182 233.358 293.818C228.388 291.485 224.525 288.242 221.767 284.091C219.009 279.939 217.631 275.182 217.631 269.818C217.631 266.303 218.328 262.833 219.722 259.409C221.085 255.985 223.525 252.182 227.04 248C230.555 243.848 235.509 238.864 241.903 233.045L255.494 219.727V219.091H216.403V203H282.767Z" fill="#5B5D6E"/>
<rect width="200" height="200" transform="matrix(0 1 -1 0 350 550)" fill="#4285F4"/>
</g>
</g>
</g>
<g filter="url(#filter1_di_275_313)">
<rect x="423.333" y="551.333" width="316" height="10.6667" fill="#5E9EEF"/>
</g>
<g filter="url(#filter2_di_275_313)">
<rect x="546" y="739.333" width="201.333" height="10.6667" transform="rotate(-90 546 739.333)" fill="#5E9EEF"/>
</g>
<g filter="url(#filter3_di_275_313)">
<rect x="344.667" y="739.333" width="50.6667" height="10.6667" transform="rotate(-90 344.667 739.333)" fill="#5E9EEF"/>
</g>
<g filter="url(#filter4_di_275_313)">
<rect x="476.667" y="348.667" width="316" height="10.6667" transform="rotate(-180 476.667 348.667)" fill="#F1F4FB"/>
</g>
<g filter="url(#filter5_di_275_313)">
<rect x="354" y="160.667" width="201.333" height="10.6667" transform="rotate(90 354 160.667)" fill="#F1F4FB"/>
</g>
<g filter="url(#filter6_di_275_313)">
<rect x="556.667" y="160.667" width="50.6667" height="10.6667" transform="rotate(90 556.667 160.667)" fill="#F1F4FB"/>
</g>
<g filter="url(#filter7_i_275_313)">
<path d="M283.778 549.998C296.037 549.998 307.793 545.129 316.462 536.46C325.13 527.792 330 516.035 330 503.776C330 491.517 325.13 479.76 316.462 471.092C307.793 462.424 296.037 457.554 283.778 457.554C271.519 457.554 259.762 462.424 251.094 471.092C242.425 479.76 237.555 491.517 237.555 503.776C237.555 516.035 242.425 527.792 251.094 536.46C259.762 545.129 271.519 549.998 283.778 549.998ZM243.333 573.11C227.387 573.11 214.444 586.052 214.444 601.998C214.444 601.998 214.444 653.998 283.778 653.998C338.736 653.998 350.13 621.319 352.487 607.776C353.111 604.24 353.111 601.998 353.111 601.998C353.111 586.052 340.169 573.11 324.222 573.11H243.333Z" fill="#F1F4FB"/>
<path d="M283.783 550.001C296.041 550.001 307.798 545.131 316.467 536.463C325.135 527.795 330.005 516.038 330.005 503.779C330.005 491.52 325.135 479.763 316.467 471.095C307.798 462.426 296.041 457.557 283.783 457.557C271.524 457.557 259.767 462.426 251.099 471.095C242.43 479.763 237.56 491.52 237.56 503.779C237.56 516.038 242.43 527.795 251.099 536.463C259.767 545.131 271.524 550.001 283.783 550.001Z" fill="#F1F4FB"/>
</g>
<g filter="url(#filter8_i_275_313)">
<path d="M616.223 350.002C603.964 350.002 592.208 354.871 583.539 363.54C574.871 372.208 570.001 383.965 570.001 396.224C570.001 408.483 574.871 420.24 583.539 428.908C592.208 437.576 603.964 442.446 616.223 442.446C628.482 442.446 640.239 437.576 648.907 428.908C657.576 420.24 662.446 408.483 662.446 396.224C662.446 383.965 657.576 372.208 648.907 363.54C640.239 354.871 628.482 350.002 616.223 350.002ZM656.668 326.89C672.614 326.89 685.557 313.948 685.557 298.002C685.557 298.002 685.557 246.002 616.223 246.002C561.265 246.002 549.871 278.681 547.514 292.224C546.89 295.76 546.89 298.002 546.89 298.002C546.89 313.948 559.832 326.89 575.779 326.89H656.668Z" fill="#5B5D6E"/>
<path d="M616.202 350.002C603.943 350.002 592.187 354.871 583.518 363.54C574.85 372.208 569.98 383.965 569.98 396.224C569.98 408.483 574.85 420.24 583.518 428.908C592.187 437.576 603.943 442.446 616.202 442.446C628.461 442.446 640.218 437.576 648.886 428.908C657.555 420.24 662.425 408.483 662.425 396.224C662.425 383.965 657.555 372.208 648.886 363.54C640.218 354.871 628.461 350.002 616.202 350.002Z" fill="#6A6C7C"/>
</g>
<rect x="150" y="150" width="600" height="600" rx="100" fill="url(#paint0_linear_275_313)"/>
<defs>
<filter id="filter0_i_275_313" x="150" y="150" width="600" height="600" filterUnits="userSpaceOnUse" color-interpolation-filters="sRGB">
<feFlood flood-opacity="0" result="BackgroundImageFix"/>
<feBlend mode="normal" in="SourceGraphic" in2="BackgroundImageFix" result="shape"/>
<feColorMatrix in="SourceAlpha" type="matrix" values="0 0 0 0 0 0 0 0 0 0 0 0 0 0 0 0 0 0 127 0" result="hardAlpha"/>
<feOffset/>
<feGaussianBlur stdDeviation="4"/>
<feComposite in2="hardAlpha" operator="arithmetic" k2="-1" k3="1"/>
<feColorMatrix type="matrix" values="0 0 0 0 0 0 0 0 0 0 0 0 0 0 0 0 0 0 1 0"/>
<feBlend mode="normal" in2="shape" result="effect1_innerShadow_275_313"/>
</filter>
<filter id="filter1_di_275_313" x="421.333" y="549.333" width="320" height="14.6667" filterUnits="userSpaceOnUse" color-interpolation-filters="sRGB">
<feFlood flood-opacity="0" result="BackgroundImageFix"/>
<feColorMatrix in="SourceAlpha" type="matrix" values="0 0 0 0 0 0 0 0 0 0 0 0 0 0 0 0 0 0 127 0" result="hardAlpha"/>
<feMorphology radius="0.666667" operator="dilate" in="SourceAlpha" result="effect1_dropShadow_275_313"/>
<feOffset/>
<feGaussianBlur stdDeviation="0.666667"/>
<feComposite in2="hardAlpha" operator="out"/>
<feColorMatrix type="matrix" values="0 0 0 0 0.741176 0 0 0 0 0.823529 0 0 0 0 0.956863 0 0 0 1 0"/>
<feBlend mode="normal" in2="BackgroundImageFix" result="effect1_dropShadow_275_313"/>
<feBlend mode="normal" in="SourceGraphic" in2="effect1_dropShadow_275_313" result="shape"/>
<feColorMatrix in="SourceAlpha" type="matrix" values="0 0 0 0 0 0 0 0 0 0 0 0 0 0 0 0 0 0 127 0" result="hardAlpha"/>
<feOffset dx="1.33333" dy="1.33333"/>
<feGaussianBlur stdDeviation="0.666667"/>
<feComposite in2="hardAlpha" operator="arithmetic" k2="-1" k3="1"/>
<feColorMatrix type="matrix" values="0 0 0 0 0 0 0 0 0 0 0 0 0 0 0 0 0 0 0.25 0"/>
<feBlend mode="normal" in2="shape" result="effect2_innerShadow_275_313"/>
</filter>
<filter id="filter2_di_275_313" x="544" y="536" width="14.6665" height="205.333" filterUnits="userSpaceOnUse" color-interpolation-filters="sRGB">
<feFlood flood-opacity="0" result="BackgroundImageFix"/>
<feColorMatrix in="SourceAlpha" type="matrix" values="0 0 0 0 0 0 0 0 0 0 0 0 0 0 0 0 0 0 127 0" result="hardAlpha"/>
<feMorphology radius="0.666667" operator="dilate" in="SourceAlpha" result="effect1_dropShadow_275_313"/>
<feOffset/>
<feGaussianBlur stdDeviation="0.666667"/>
<feComposite in2="hardAlpha" operator="out"/>
<feColorMatrix type="matrix" values="0 0 0 0 0.741176 0 0 0 0 0.823529 0 0 0 0 0.956863 0 0 0 1 0"/>
<feBlend mode="normal" in2="BackgroundImageFix" result="effect1_dropShadow_275_313"/>
<feBlend mode="normal" in="SourceGraphic" in2="effect1_dropShadow_275_313" result="shape"/>
<feColorMatrix in="SourceAlpha" type="matrix" values="0 0 0 0 0 0 0 0 0 0 0 0 0 0 0 0 0 0 127 0" result="hardAlpha"/>
<feOffset dx="1.33333" dy="1.33333"/>
<feGaussianBlur stdDeviation="0.666667"/>
<feComposite in2="hardAlpha" operator="arithmetic" k2="-1" k3="1"/>
<feColorMatrix type="matrix" values="0 0 0 0 0 0 0 0 0 0 0 0 0 0 0 0 0 0 0.25 0"/>
<feBlend mode="normal" in2="shape" result="effect2_innerShadow_275_313"/>
</filter>
<filter id="filter3_di_275_313" x="342.667" y="686.667" width="14.6665" height="54.6667" filterUnits="userSpaceOnUse" color-interpolation-filters="sRGB">
<feFlood flood-opacity="0" result="BackgroundImageFix"/>
<feColorMatrix in="SourceAlpha" type="matrix" values="0 0 0 0 0 0 0 0 0 0 0 0 0 0 0 0 0 0 127 0" result="hardAlpha"/>
<feMorphology radius="0.666667" operator="dilate" in="SourceAlpha" result="effect1_dropShadow_275_313"/>
<feOffset/>
<feGaussianBlur stdDeviation="0.666667"/>
<feComposite in2="hardAlpha" operator="out"/>
<feColorMatrix type="matrix" values="0 0 0 0 0.741176 0 0 0 0 0.823529 0 0 0 0 0.956863 0 0 0 1 0"/>
<feBlend mode="normal" in2="BackgroundImageFix" result="effect1_dropShadow_275_313"/>
<feBlend mode="normal" in="SourceGraphic" in2="effect1_dropShadow_275_313" result="shape"/>
<feColorMatrix in="SourceAlpha" type="matrix" values="0 0 0 0 0 0 0 0 0 0 0 0 0 0 0 0 0 0 127 0" result="hardAlpha"/>
<feOffset dx="1.33333" dy="1.33333"/>
<feGaussianBlur stdDeviation="0.666667"/>
<feComposite in2="hardAlpha" operator="arithmetic" k2="-1" k3="1"/>
<feColorMatrix type="matrix" values="0 0 0 0 0 0 0 0 0 0 0 0 0 0 0 0 0 0 0.25 0"/>
<feBlend mode="normal" in2="shape" result="effect2_innerShadow_275_313"/>
</filter>
<filter id="filter4_di_275_313" x="158.667" y="336" width="320" height="14.6667" filterUnits="userSpaceOnUse" color-interpolation-filters="sRGB">
<feFlood flood-opacity="0" result="BackgroundImageFix"/>
<feColorMatrix in="SourceAlpha" type="matrix" values="0 0 0 0 0 0 0 0 0 0 0 0 0 0 0 0 0 0 127 0" result="hardAlpha"/>
<feMorphology radius="0.666667" operator="dilate" in="SourceAlpha" result="effect1_dropShadow_275_313"/>
<feOffset/>
<feGaussianBlur stdDeviation="0.666667"/>
<feComposite in2="hardAlpha" operator="out"/>
<feColorMatrix type="matrix" values="0 0 0 0 0.909804 0 0 0 0 0.929412 0 0 0 0 0.972549 0 0 0 1 0"/>
<feBlend mode="normal" in2="BackgroundImageFix" result="effect1_dropShadow_275_313"/>
<feBlend mode="normal" in="SourceGraphic" in2="effect1_dropShadow_275_313" result="shape"/>
<feColorMatrix in="SourceAlpha" type="matrix" values="0 0 0 0 0 0 0 0 0 0 0 0 0 0 0 0 0 0 127 0" result="hardAlpha"/>
<feOffset dx="1.33333" dy="1.33333"/>
<feGaussianBlur stdDeviation="0.666667"/>
<feComposite in2="hardAlpha" operator="arithmetic" k2="-1" k3="1"/>
<feColorMatrix type="matrix" values="0 0 0 0 0 0 0 0 0 0 0 0 0 0 0 0 0 0 0.25 0"/>
<feBlend mode="normal" in2="shape" result="effect2_innerShadow_275_313"/>
</filter>
<filter id="filter5_di_275_313" x="341.333" y="158.667" width="14.6665" height="205.333" filterUnits="userSpaceOnUse" color-interpolation-filters="sRGB">
<feFlood flood-opacity="0" result="BackgroundImageFix"/>
<feColorMatrix in="SourceAlpha" type="matrix" values="0 0 0 0 0 0 0 0 0 0 0 0 0 0 0 0 0 0 127 0" result="hardAlpha"/>
<feMorphology radius="0.666667" operator="dilate" in="SourceAlpha" result="effect1_dropShadow_275_313"/>
<feOffset/>
<feGaussianBlur stdDeviation="0.666667"/>
<feComposite in2="hardAlpha" operator="out"/>
<feColorMatrix type="matrix" values="0 0 0 0 0.909804 0 0 0 0 0.929412 0 0 0 0 0.972549 0 0 0 1 0"/>
<feBlend mode="normal" in2="BackgroundImageFix" result="effect1_dropShadow_275_313"/>
<feBlend mode="normal" in="SourceGraphic" in2="effect1_dropShadow_275_313" result="shape"/>
<feColorMatrix in="SourceAlpha" type="matrix" values="0 0 0 0 0 0 0 0 0 0 0 0 0 0 0 0 0 0 127 0" result="hardAlpha"/>
<feOffset dx="1.33333" dy="1.33333"/>
<feGaussianBlur stdDeviation="0.666667"/>
<feComposite in2="hardAlpha" operator="arithmetic" k2="-1" k3="1"/>
<feColorMatrix type="matrix" values="0 0 0 0 0 0 0 0 0 0 0 0 0 0 0 0 0 0 0.25 0"/>
<feBlend mode="normal" in2="shape" result="effect2_innerShadow_275_313"/>
</filter>
<filter id="filter6_di_275_313" x="544" y="158.667" width="14.6665" height="54.6667" filterUnits="userSpaceOnUse" color-interpolation-filters="sRGB">
<feFlood flood-opacity="0" result="BackgroundImageFix"/>
<feColorMatrix in="SourceAlpha" type="matrix" values="0 0 0 0 0 0 0 0 0 0 0 0 0 0 0 0 0 0 127 0" result="hardAlpha"/>
<feMorphology radius="0.666667" operator="dilate" in="SourceAlpha" result="effect1_dropShadow_275_313"/>
<feOffset/>
<feGaussianBlur stdDeviation="0.666667"/>
<feComposite in2="hardAlpha" operator="out"/>
<feColorMatrix type="matrix" values="0 0 0 0 0.909804 0 0 0 0 0.929412 0 0 0 0 0.972549 0 0 0 1 0"/>
<feBlend mode="normal" in2="BackgroundImageFix" result="effect1_dropShadow_275_313"/>
<feBlend mode="normal" in="SourceGraphic" in2="effect1_dropShadow_275_313" result="shape"/>
<feColorMatrix in="SourceAlpha" type="matrix" values="0 0 0 0 0 0 0 0 0 0 0 0 0 0 0 0 0 0 127 0" result="hardAlpha"/>
<feOffset dx="1.33333" dy="1.33333"/>
<feGaussianBlur stdDeviation="0.666667"/>
<feComposite in2="hardAlpha" operator="arithmetic" k2="-1" k3="1"/>
<feColorMatrix type="matrix" values="0 0 0 0 0 0 0 0 0 0 0 0 0 0 0 0 0 0 0.25 0"/>
<feBlend mode="normal" in2="shape" result="effect2_innerShadow_275_313"/>
</filter>
<filter id="filter7_i_275_313" x="191.333" y="411.333" width="277.333" height="280" filterUnits="userSpaceOnUse" color-interpolation-filters="sRGB">
<feFlood flood-opacity="0" result="BackgroundImageFix"/>
<feBlend mode="normal" in="SourceGraphic" in2="BackgroundImageFix" result="shape"/>
<feColorMatrix in="SourceAlpha" type="matrix" values="0 0 0 0 0 0 0 0 0 0 0 0 0 0 0 0 0 0 127 0" result="hardAlpha"/>
<feOffset dy="2.66667"/>
<feGaussianBlur stdDeviation="2.66667"/>
<feComposite in2="hardAlpha" operator="arithmetic" k2="-1" k3="1"/>
<feColorMatrix type="matrix" values="0 0 0 0 0 0 0 0 0 0 0 0 0 0 0 0 0 0 0.25 0"/>
<feBlend mode="normal" in2="shape" result="effect1_innerShadow_275_313"/>
</filter>
<filter id="filter8_i_275_313" x="431.333" y="208.667" width="277.333" height="280" filterUnits="userSpaceOnUse" color-interpolation-filters="sRGB">
<feFlood flood-opacity="0" result="BackgroundImageFix"/>
<feBlend mode="normal" in="SourceGraphic" in2="BackgroundImageFix" result="shape"/>
<feColorMatrix in="SourceAlpha" type="matrix" values="0 0 0 0 0 0 0 0 0 0 0 0 0 0 0 0 0 0 127 0" result="hardAlpha"/>
<feOffset dy="-2.66667"/>
<feGaussianBlur stdDeviation="2.66667"/>
<feComposite in2="hardAlpha" operator="arithmetic" k2="-1" k3="1"/>
<feColorMatrix type="matrix" values="0 0 0 0 0 0 0 0 0 0 0 0 0 0 0 0 0 0 0.25 0"/>
<feBlend mode="normal" in2="shape" result="effect1_innerShadow_275_313"/>
</filter>
<linearGradient id="paint0_linear_275_313" x1="625.454" y1="86.8602" x2="304.04" y2="525.488" gradientUnits="userSpaceOnUse">
<stop stop-color="white" stop-opacity="0.83"/>
<stop offset="1" stop-color="white" stop-opacity="0"/>
</linearGradient>
<clipPath id="clip0_275_313">
<rect x="150" y="150" width="600" height="600" rx="100" fill="white"/>
</clipPath>
<clipPath id="clip1_275_313">
<rect x="750" y="150" width="600" height="600" rx="100" transform="rotate(90 750 150)" fill="white"/>
</clipPath>
</defs>
</svg>
